<svg xmlns="http://www.w3.org/2000/svg" viewBox="0 0 300 99"><path fill="#474747" d="M0 0h300v99H0z"/><g fill-opacity=".5"><path fill="#f1f1f1" d="m-18.2 107.2 55.1-62 194.5 51.5z"/><path fill="#a1a1a1" d="m79.1 117.8-97.3-136 336.4 45.7z"/><path fill="#dedede" d="m264.3 96.7-52.8-48L318.2-.7z"/><path fill="#757575" d="M288.9 74.4 188-17l129 30.5z"/><path fill="#fff" d="m-18.2 14.6 78.6-32.8 43.3 48z"/><path fill="#161616" d="M46.3 63.9 97.9 5.3 185.7 51z"/><path fill="#eaeaea" d="M165.8 93.2 167-18.2l43.4 132.5z"/><path d="m181 58 17.6-75 42.2 134.8z"/><path fill="#fff" d="m313.5 62.7-126.6-8.2 59.8 22.3z"/><path fill="#1d1d1d" d="m293.6 63.9-38.7-13-22.3-37.4z"/><path fill="#fff" d="M.6-18.2-18.2 58l58.6-45.7z"/><path d="m-.6 85 20-56.3 35-18.7z"/><path fill="#e6e6e6" d="m184.6 42.8-123-61L175.1-.6z"/><path fill="#919191" d="M171.7-.6 77.9 25.2l44.6 12.9z"/><path fill="#1c1c1c" d="m95.5 47.5 51.6 70.3 7-95z"/><path d="m215 117.8-17.5-56.3 62 25.8z"/><path fill="#020202" d="m204.5 117.8 4.7-56.3 45.7 28.1z"/><path d="m55.7 38 19.9 3.6-22.3 61z"/><path fill="#ddd" d="m39.3 37-41 56.2 55 24.6z"/><path fill="#d5d5d5" d="M144.7 76.8 54.5 79l22.3-25.8z"/><path fill="#919191" d="m161.1 79.1-59.7-2.3-25.8-27z"/><path fill="#dfdfdf" d="m116.6 28.7-83.2-21 20 24.5z"/><path fill="#a5a5a5" d="m83.8 15.8-69.2-34 54 59.8z"/><path d="M202.1 38 214-18.1h-55.1z"/><path d="M197.5 38 209.2.7l-34-18.8z"/><path fill="#fff" d="M290 6.4v47l-15.2-32.9z"/><path fill="#181818" d="m293.6 61.5 24.6 4.7-24.6-71.5z"/><path d="M95.5 35.7 85 46.3 63.9 17z"/><path d="m58 72 32.8-41-22.2 7zm200.4 45.8 53.9-48-37.5 2.3z"/><path fill="#eee" d="m225.6 117.8 36.3-28.2 10.6 28.2z"/><path d="m153 27.5 25.7 25.8-41-10.5z"/><path fill="#4d4d4d" d="m109.6 67.4 89-14-43.3-8.3z"/><path fill="#d0d0d0" d="m243.2 39.3 15.2 34-70.3-16.5z"/><path fill="#444" d="m210.4 13.5 83.2 28.1-41-28.1z"/><path fill="#bfbfbf" d="m235 19.3 44.5-27-54-10.5z"/><path fill="#b4b4b4" d="m239.6 13.5 8.3-25.8-49.3-5.9z"/><path d="m11.1 37 35.2-10.6-48 56.2z"/><path fill="#cdcdcd" d="m-18.2 66.2 42.2-41-14-43.4z"/><path fill="#fff" d="M61.5 18.2 107.2 31 83.8 10z"/><path fill="#989898" d="M120.1-18.2 58.1 10 12.2-3z"/><path d="m80.3-1.8 14 22.3 24.6 1.2z"/><path fill="#a5a5a5" d="m100.2 42.8 61-22.3-38.7 1.2z"/><path d="M203.3-18.2 146 13.5l29.3-31.7z"/><path fill="#fff" d="M229.1-18.2 149.4 4.1 96.7-18.2z"/><path fill="#e5e5e5" d="m135.4 7.6 45.7 41 9.3-24.6z"/><path fill="#626262" d="m135.4 7.6 10.5 25.8-22.3 1.2z"/><path fill="#bdbdbd" d="M208 81.4 143.6 64l14 53.9z"/><path fill="#c6c6c6" d="m219.7 117.8-61-42.2 30.6-12.9z"/><path fill="#efefef" d="m231.4 68.6 47-5.9-16.5 25.8z"/><path d="m291.2 115.4-10.5-43.3-18.8 18.7z"/><path fill="#040404" d="m284.2 46.3-31.7-5.9 20 17.6z"/><path fill="#c9c9c9" d="M293.6 38 276 58l28-17.6z"/><path fill="#070707" d="m116.6 75.6 38.7 31.6-11.7-27z"/><path fill="#909090" d="m124.8 93.2 12.9 24.6 2.3-34z"/><path fill="#fff" d="m59.2 38 10.5-8-27-10.6z"/><path fill="#d2d2d2" d="m59.2 38 15.2-4.6L51-6.4z"/><path fill="#959595" d="M55.7 45.1 14.7 78l42.1-2.3z"/><path fill="#c2c2c2" d="m37 117.8-55.2-28.2 75-14z"/></g></svg>