<svg xmlns="http://www.w3.org/2000/svg" viewBox="0 0 300 99"><path fill="#474747" d="M0 0h300v99H0z"/><g fill-opacity=".5"><path fill="#bcbcbc" d="m-.6 117.8 2.4-136 316.4 82z"/><path fill="#8a8a8a" d="m170.5 117.8-93.7-136 241.4 29.3z"/><path d="m10 33.4 158.2-2.3-32.8 41z"/><path fill="#bfbfbf" d="M-18.2 85 194 60.4l9.4 57.4z"/><path d="m210.4-18.2 5.8 136-45.7-136z"/><path fill="#e1e1e1" d="m82.6-18.2 129 85.6-42.3-73.8z"/><path d="m49.8 19.3-68 89.1 29.3-73.8z"/><path fill="#e6e6e6" d="m44 31-55.2 74 63.2 3.5z"/><path fill="#d5d5d5" d="m265.4 89.6-62-35.1L318.1 2.9z"/><path fill="#323232" d="M277.1 61.5 237.3 30l34-28.1z"/><path fill="#f7f7f7" d="m113 29.9-131.2-14 55.1-34z"/><path fill="#fbfbfb" d="m27.5 22.9-45.7 31.6 45.7-72.7z"/><path fill="#070707" d="m252.5 117.8-68-58.6 7.1-72.7z"/><path fill="#dadada" d="M236.1 28.7 272.5 78l-80.9-20z"/><path fill="#2f2f2f" d="m140 117.8 28.2-78.5L79-6.4z"/><path d="m56.8 49.8 27-28.1-30.5 80.8z"/><path fill="#b4b4b4" d="m63.9-6.4 46.8-11.8-78.5 92.6z"/><path fill="#d8d8d8" d="m55.7 78 24.6-29.4 56.2 27z"/><path fill="#c9c9c9" d="m53.3 117.8 13-55.1 45.6 15.2z"/><path d="M68.6 49.8 25.2 27.5l11.7-11.7zM-14.6 99l43.3-49.2-10.5-17.6zm232-37.5L260.7 92l-58.6 18.7z"/><path d="m232.6 81.4 20 10.6-66.9 25.8z"/><path fill="#d3d3d3" d="m218.6 117.8-27-54-62.1 10.6z"/><path fill="#d0d0d0" d="M212.7 117.8 199.8 79l-49.2 16.4z"/><path fill="#b0b0b0" d="M134.2 10 90.8 46.3l84.4-31.7z"/><path fill="#6b6b6b" d="m134.2 10-25.8 29.3 52.7-32.9z"/><path fill="#e2e2e2" d="m258.4 40.4 30.5-36.3 3.5 41z"/><path fill="#141414" d="M297 61.5 318.3-11l-24.6 27z"/><path fill="#fff" d="M191.6 24 165.8 4.1l7 45.7z"/><path d="m179.9-3-8.2-7-27 22.3z"/><path fill="#f6f6f6" d="m53.3 33.4 25.8 4.7-23.4-24.6z"/><path fill="#6e6e6e" d="m46.3 18.2 24.6-30.5-37.5-5.9z"/><path d="m73.2 24 27 10.6-39.8 27z"/><path fill="#060606" d="m58 39.3 57.4-9.4-56.2 25.8z"/><path d="m135.4 44 43.3 9.3-28.1-28.1z"/><path fill="#858585" d="M135.4 40.4 83.8-15.8 149.4 24z"/><path fill="#f2f2f2" d="m228 63.9 58.5-1.2-28.1 24.6z"/><path fill="#d0d0d0" d="M213.9 61.5h84.3l-42.1 21.1z"/><path d="m274.8 72 36.3-4.6-49.2 50.4z"/><path fill="#fff" d="m257.2 93.2 23.5 11.7-61 12.9z"/><path fill="#161616" d="m265.4 58 52.8 7-72.7-31.6z"/><path fill="#cdcdcd" d="m226.8-13.5 42.1 13L233.8 11z"/><path fill="#fff" d="M95.5 32.2 69.7 15.8l45.7 13z"/><path fill="#0a0a0a" d="m79.1-3 14 21.2 40 3.5z"/><path fill="#090909" d="m154.1 106-10.5-24.6-35.2-9.3z"/><path fill="#717171" d="m138.9 97.9 4.7-16.5-65.7 2.4z"/><path d="m208 20.5-24.6 41 12.9-79.7z"/><path fill="#6e6e6e" d="M197.5 37 215 59.1l39.9-61z"/><path fill="#414141" d="m237.3 25.2 12.9-11.7 41 27z"/><path fill="#959595" d="m220.9 17 25.8 15.2-27 21.1z"/><path fill="#fff" d="m292.4 45.1-13 8.2 6 5.9z"/><path fill="#191919" d="m267.8 53.3 23.4-9.4-17.6 1.2z"/><path fill="#c4c4c4" d="m87.3 1.8 44.5 12.8 66.8-32.8z"/><path fill="#b7b7b7" d="m92-18.2 22.3 31.7 99.6-27z"/><path fill="#fff" d="m201 62.7 21-1.2L190.5 51z"/><path fill="#b7b7b7" d="m245.5 39.3 9.4 28-48-10.5z"/><path d="M95.5 48.6 146 24l-35.2 32.8z"/><path fill="#626262" d="m88.5 62.7 48 7-50.4-23.4z"/></g></svg>