<svg xmlns="http://www.w3.org/2000/svg" viewBox="0 0 300 198"><path fill="#513b2c" d="M0 0h300v198H0z"/><g fill-opacity=".5"><path fill="#bc7f6f" d="m14.6 216.2 303.6-211-336.4-23.4z"/><path fill="#cbc3b3" d="m-15.8 182.2 102-80.8-76.2-48z"/><path fill="#fff" d="m318.2 104.9-43.4-71.5 5.9 182.8z"/><path fill="#fffff6" d="m318.2 107.2-43.4-44.5 1.2 106.6z"/><path fill="#b0523c" d="M237.3 216.2h-211l186.4-170z"/><path fill="#742b1f" d="m223.2 175.2-198-18.8L315.8 1.8z"/><path fill="#8ba384" d="m76.8 158.8-39.9 57.4L278.3 194z"/><path fill="#68160f" d="m75.6 63.9 1.2 91.4 218 34z"/><path fill="#97a383" d="m169.3 148.2 2.4-70.3-73.8 17.6z"/><path fill="#1b140c" d="M89.6 141.2 76.8 99l60.9-55z"/><path fill="#010000" d="m199.8 101.4 77.3 59.7-80.8-7z"/><path fill="#b10000" d="m164.6 158.8 112.5-1.2-11.7 28.1z"/><path fill="#9a967f" d="m277.1 114.3-84.3-45.7 7 44.5z"/><path fill="#5b5e58" d="m277.1 112-41-36.4-10.5 34z"/><path fill="#ff3a08" d="m169.3 78 3.6 55 39.8-68z"/><path fill="#580000" d="m131.8 53.3 17.6 32.8L215 64z"/><path fill="#b7ad97" d="m31 56.8 41 113.7L79.2 78z"/><path fill="#b7a18c" d="M-18.2 68.6 78 147l-5.8-65.7z"/><path fill="#d0dfe3" d="m285.4 5.3-49.3 21-8.2-14z"/><path fill="#927b6e" d="m318.2 6.4-17.6 75L235-18.2z"/><path fill="#ced1ce" d="m197.5 29.9-48 2.3 25.7-17.6z"/><path fill="#995e4d" d="m89.6 14.6 44.6 75 34-107.8z"/><path fill="#564a33" d="m-12.3 149.4 107.8 7L23 216.2z"/><path fill="#5a0000" d="m-18.2 171.7 14.1 41 106.6 3.5z"/><path fill="#caa898" d="m299.4 213.9-25.8-55.1 44.6-61z"/><path fill="#ddd6c5" d="m299.4 175.2 18.8-120.7-51.6 21z"/><path fill="#d60f00" d="M215 157.6 79.1 142.4l68 27z"/><path fill="#8a0000" d="m149.4 165.8-79.7-9.4 20-28z"/><path fill="#120400" d="m273.6 167-1.1-46.9-55.1-5.8z"/><path fill="#60432d" d="m250.2 143.6 16.4-14.1-63.3 5.9z"/><path fill="#1e0000" d="M201 61.5 238.5 78l35.1-21z"/><path fill="#7d493f" d="m124.8 70.9 79.7-54 113.7 18.8z"/><path fill="#624133" d="m69.7 61.5-87.9 4.7L6.4-18.2z"/><path fill="#714b3c" d="M92-18.2-18.2 92-2.9-18.2z"/><path fill="#cbc09e" d="m120.1 96.7 11.7-27 28.2 30.5z"/><path fill="#5b5040" d="m117.8 140 51.5 5.9-93.7-99.6z"/><path fill="#451205" d="m148.2 66.2-46.8 17.6-37.5-21.1z"/><path fill="#814f41" d="m182.2 55.7-31.6-30.5L106 69.7z"/><path fill="#7a5b3a" d="m305.3 188-96.1-9.3 37.5 37.5z"/><path fill="#807252" d="m311.1 192.8-119.5-16.4 90.2 39.8z"/><path fill="#d2c4be" d="M67.4 48.6 45 42.8l47-2.4z"/><path fill="#634d41" d="m52.1 56.8 41 43.4-17.5-55z"/><path fill="#c6ba9b" d="m199.8 216.2-23.4-39.8 30.4 5.8z"/><path fill="#9e9075" d="m160 216.2 18.7-42.2 32.8 9.4z"/><path fill="#311207" d="m141.2 63.9 23.4 3.5-2.3 36.3z"/><path fill="#560000" d="m142.4 63.9 27 10.5L201 65z"/><path fill="#1e1615" d="m75.6 85 62.1 62-56.3-22.2z"/><path fill="#99847a" d="m48.6 175.2-14-54-48 23.5z"/><path fill="#716d54" d="m73.2 196.3-51.5-50.4-39.9 25.8z"/><path fill="#ae0000" d="m195.1 94.3-3.5 39.9-21-7z"/><path fill="#d0c0aa" d="m213.9 75.6-13 23.4 16.5-3.5z"/><path fill="#fe5f23" d="m163.5 73.2 32.8 37.5-3.5-35.1z"/><path fill="#db927e" d="M175.2 110.7 164.6 126l2.4-43.4z"/><path fill="#580000" d="m278.3 171.7 3.5 18.7-59.7-21z"/><path fill="#5e0000" d="M278.3 171.7v14l-30.4-3.5z"/><path fill="#6b5a4a" d="m274.8 72-45.7 56.3 44.5-18.7z"/><path fill="#876156" d="M274.8 69.7 261.9 112l11.7-2.3z"/><path fill="#a28878" d="m63.9 143.6-30.5-4.7 15.2-63.3z"/><path fill="#a08476" d="m61.5 143.6-28.1-4.7 12.9-43.4z"/></g></svg>