<svg xmlns="http://www.w3.org/2000/svg" viewBox="0 0 300 187"><path fill="#444" d="M0 0h300v187H0z"/><g fill-opacity=".5"><path fill="#fff" d="m-18.2 54.5 317.6 151.2V-18.2z"/><path fill="#cdcdcd" d="m-18.2 4.1 336.4 150-18.8-172.3z"/><path fill="#f8f8f8" d="M-15.8 205.7V56.8l275.4 131.3z"/><path fill="#a6a6a6" d="m8.8 192.8-10.6-211h315.3z"/><path d="M147 88.5 173 202l12.8-111.3z"/><path fill="#060606" d="m154.1 75.6 16.4 111.3 17.6-90.2z"/><path fill="#cacaca" d="M318.2 184.6 263-17l-85.6 202.7z"/><path fill="#bfbfbf" d="M315.8 181 242 10l-58.6 151z"/><path d="m179.9 90.8 19.9 15.3-2.3 18.7z"/><path fill="#878787" d="m134.2 141.2 59.7-35.1-3.5 22.2z"/><path fill="#a5a5a5" d="m95.5 179.9-113.7-157 250.8-41z"/><path fill="#a3a3a3" d="m76.8 205.7-95-178.2 221.5-8.2z"/><path d="m174 163.5 10.6 42.2H161z"/><path fill="#8c8c8c" d="m256 163.5 2.4 29.3-84.4 12.9z"/><path d="M189.3 97.9 160 130.7l-7-37.5z"/><path fill="#020202" d="m181 120.1-31.6-7 15.2-23.5z"/><path fill="#7a7a7a" d="m238.5 122.5 8.2 30.4v-46.8z"/><path fill="#c8c8c8" d="m247.9 161.1 51.5 44.6L303 15.8z"/><path fill="#8a8a8a" d="m145.9 189.3 23.4-17.6L146 95.5z"/><path fill="#adadad" d="M163.5 205.7 65 170.5l49.3-132.4z"/><path fill="#858585" d="M143.6 80.3 186.9 92l-7-18.8z"/><path fill="#969696" d="m170.5 89.6 20 2.4-22.3-32.8z"/><path fill="#949494" d="M-18.2 99 5.3-18.2 133 37z"/><path fill="#8c8c8c" d="m.6 29.9 7-48 55.1 32.7z"/><path fill="#bababa" d="m183.4 121.3 3.5-15.2-7 2.3z"/><path fill="#b5b5b5" d="m145.9 46.3 90.2 51.6 63.3-116z"/><path d="M197.5 121.3 189.3 99l9.3 8.2z"/><path d="m183.4 104.9 5.9-5.9 9.3 8.2zm-9.4 31.6h-14l17.5 50.4z"/><path fill="#787878" d="m179.9 130.7-17.6 4.7 1.2-23.5z"/><path fill="#a7a7a7" d="m188-15.8-37.4 120.7-83.2-55.1z"/><path fill="#9f9f9f" d="m107.2 13.5 22.3 50.4-144.1 91.4z"/><path fill="#b3b3b3" d="m178.7 163.5-1.2-22.3 83.2 16.4z"/><path fill="#b3b3b3" d="m176.4 205.7 8.2-71.5 66.8 29.3z"/><path fill="#101010" d="m154.1 114.3 22.3-25.8L181 120z"/><path fill="#0e0e0e" d="m148.2 108.4 17.6-20 17.6 34z"/><path fill="#767676" d="m148.2 136.5 20 23.5-16.4-47z"/><path fill="#9f9f9f" d="m149.4 102.5 3.5 34-49.2 7z"/><path fill="#090909" d="m167 150.6 10.5-20-1.1 35.2z"/><path fill="#767676" d="m192.8 107.2-11.7 27 12.8-13z"/><path fill="#696969" d="m237.3 197.5-12.9-4.7 12.9-18.8z"/><path fill="#aaa" d="M236.1 170.5 167 194l48-2.3z"/><path fill="#b0b0b0" d="m260.7-18.2-133.6 20L280.7 31z"/><path fill="#b1b1b1" d="m247.9-18.2-104.3 4.7L283 37z"/><path fill="#b8b8b8" d="m188 157.6 61 3.5-28-119.5z"/><path fill="#b9b9b9" d="M189.3 205.7 242 126l-34-79.7z"/><path fill="#0e0e0e" d="m197.5 106-5.9-5.8 3.5 23.4z"/><path fill="#c4c4c4" d="m224.4 90.8-12.9 27 92.6-15.3z"/><path fill="#878787" d="m247.9 147-6 10.6 4.8 17.6z"/><path fill="#bebebe" d="M262 205.7 239.5 174l-1.1 14z"/><path fill="#828282" d="m164.6 195.1-7-37.5 10.6 16.4z"/><path fill="#949494" d="m162.3 198.6-69.1-5.8 75-18.8z"/><path fill="#9e9e9e" d="m178.7 110.7 12.9-4.6-1.2 23.4z"/><path fill="#b1b1b1" d="m177.5 205.7 48-99.6-36.2 23.4z"/><path fill="#b0b0b0" d="m213.9 90.8-30.5 2.4-14-55.1z"/><path fill="#b7b7b7" d="m231.4 59.2-49.2 28.1 50.4-79.7z"/><path fill="#767676" d="m249 113-3.5 15.3-7-14z"/><path fill="#bbb" d="m212.7 117.8 32.8 50.4-3.5-50.4z"/><path fill="#8a8a8a" d="m179.9 69.7-15.3 7 7 16.5z"/><path fill="#636363" d="m169.3 80.3-1.1-3.5-10.6 4.6z"/></g></svg>