<svg xmlns="http://www.w3.org/2000/svg" viewBox="0 0 300 187"><path fill="#444" d="M0 0h300v187H0z"/><g fill-opacity=".5"><path fill="#fff" d="M299.4 205.7V-18.2l-317.6 88z"/><path fill="#d1d1d1" d="M266.6 205.7 6.4-18.2l-24.6 208.6z"/><path fill="#d0d0d0" d="M297 164.6 7.7-1.8 318.2-11z"/><path fill="#797979" d="M194 161.1-18.3 69.7l201.6-56.2z"/><path d="M148.2 99 173 205.7l8-111.4z"/><path d="m158.8 92-5.9 30.5 45.7-10.6z"/><path fill="#b8b8b8" d="m117.8 205.7-136-59.8 214.5-164z"/><path fill="#a6a6a6" d="m167 201-185.2-18.8 109-200.4z"/><path fill="#cbcbcb" d="m167 205.7 79.7-185.2 71.5 162.9z"/><path fill="#b4b4b4" d="m175.2 170.5 75-188.7-9.4 197z"/><path fill="#a2a2a2" d="m-13.5-1.8 293 2.4-291.8 205z"/><path d="M177.5 137.7H160l11.7 51.6z"/><path fill="#757575" d="m157.6 188 2.4-50.3 11.7 51.6z"/><path fill="#0a0a0a" d="m179.9 99 12.9 31.7 4.7-17.6z"/><path fill="#b7b7b7" d="m201 140 58.6-14-64.5-21.1z"/><path fill="#b2b2b2" d="m318.2-15.8-198 24.6 60.9 91.4z"/><path fill="#b6b6b6" d="M318.2 7.6 163.5 51l17.6 49.2z"/><path fill="#848484" d="m75.6 24-93.8 22.3L7.6-18.2z"/><path fill="#8e8e8e" d="M121.3 13.5-18.2 31l31.7-49.3z"/><path d="m162.3 95.5 12.9 29.3-27-9.4z"/><path fill="#040404" d="M176.4 99v22.3l-22.3 2.3z"/><path fill="#c8c8c8" d="m238.5 164.6 79.7 31.7L306.4 1.8z"/><path fill="#c3c3c3" d="m249 205.7 69.2-27-49.3-140.6z"/><path fill="#b9b9b9" d="m176.4 144.7 2.3 58.6L222.1 99z"/><path fill="#bebebe" d="M232.6 148.2 180 204.5l48-113.7z"/><path fill="#b0b0b0" d="m176.4 116.6 11.7-4.7 2.3 23.5z"/><path fill="#7e7e7e" d="m155.3 140 15.2-15.2 21.1 7z"/><path d="m162.3 205.7 9.4-44.6 10.5 44.6z"/><path fill="#acacac" d="m53.3 92 80.9 96 27-25.7z"/><path fill="#979797" d="m237.3 120.1-20 85.6 34-16.4z"/><path fill="#b7b7b7" d="m246.7 162.3-78.5 42.2 46.8-87.9z"/><path d="m160 136.5-4.7-24.6 9.3 4.7z"/><path fill="#0e0e0e" d="m191.6 107.2-32.8-5.8 1.2 17.5z"/><path fill="#040404" d="m181 133-11.7 32.8-4.7-19.9z"/><path fill="#0e0e0e" d="m174 135.4-3.5 44.5-8.2-32.8z"/><path fill="#7a7a7a" d="m165.8 162.3-17.6-53.9v29.3z"/><path fill="#9a9a9a" d="m133 133 16.4-38.7v55.1z"/><path fill="#9c9c9c" d="M-18.2 202.1 190.4-18.2 24 27.5z"/><path fill="#a3a3a3" d="M-18.2 89.6 225.6 4.1 67.4 117.8z"/><path fill="#8d8d8d" d="m167 78 2.3 24.5 8.2-17.5z"/><path fill="#adadad" d="m220.9-18.2-24.6 90.3L99 100.2z"/><path fill="#b5b5b5" d="m175.2 94.3 36.3 28.2L201 70.9z"/><path fill="#b1b1b1" d="m175.2 95.5 50.4 5.9-22.3-11.8z"/><path fill="#828282" d="m172.9 82.6-28.2 27 9.4-21.1z"/><path fill="#a2a2a2" d="m158.8 90.8-14 18.8 12.8-45.7z"/><path fill="#6c6c6c" d="m238.5 135.4 4.7-16.5h-9.4z"/><path fill="#c6c6c6" d="M240.8 164.6 242 85l27 99.6z"/><path fill="#757575" d="m231.4 174-27 24.6h27z"/><path fill="#ababab" d="m264.3 204.5-82 1.2-7.1-38.7z"/><path d="m174 97.9 11.7 5.8L194 119z"/><path fill="#b8b8b8" d="M185.7 65v38.7l75-35.1z"/><path fill="#acacac" d="m101.4 92-39.9 63.3 93.8-31.7z"/><path fill="#aeaeae" d="M145.9 79.1 94.3 126l32.8 4.7z"/><path d="m189.3 128.3 3.5-15.2 1.1 12.9z"/><path fill="#b6b6b6" d="m196.3 189.3 15.2-34L194 126z"/><path fill="#979797" d="M85-18.2-18.2 89.6l102-5.8z"/><path fill="#909090" d="M78 6.4 37 24l19.8 25.8z"/><path fill="#9c9c9c" d="m102.5 205.7 62.1-39.9 1.2 35.2z"/><path fill="#9a9a9a" d="m103.7 195.1 62.1-17.6-14 23.5z"/></g></svg>