<svg xmlns="http://www.w3.org/2000/svg" viewBox="0 0 297 778"><path fill="#444" d="M0 0h297v778H0z"/><g fill-opacity=".5"><path fill="#f4f4f4" d="M241.6-47.1-47 645.8l392 179.3z"/><path fill="#c4c4c4" d="M345 13.7-47.2-47.1 10.6 825z"/><path fill="#3d3d3d" d="m226.4 384.4-94.2 361.7-6-717.2z"/><path fill="#a9a9a9" d="M53.2 825.1-47.1-47l392 231z"/><path fill="#444" d="m129.2-47.1-3 565.3 82-297.9z"/><path fill="#bcbcbc" d="m168.7 147.4 60.7 653.4L345 138.3z"/><path fill="#eee" d="m41 825.1 100.3-85-88.1-76z"/><path fill="#f3f3f3" d="m262.9 721.8-57.8 85L187 706.7z"/><path fill="#454545" d="m186.9 338.9-73 197.5 73 261.4z"/><path fill="#bbb" d="M150.4-47.1-47 150.4l48.6 465z"/><path fill="#343434" d="M25.8 734V521.1l33.5 91.2z"/><path fill="#eee" d="M13.7 810V421l-60.8 173z"/><path fill="#484848" d="M183.9-35 98.8-47l82 273.5z"/><path fill="#636363" d="m71.4 238.6 3-264.4L111 114z"/><path fill="#5d5d5d" d="m10.6 597.2 15.2-252.3 27.4 133.8z"/><path fill="#d5d5d5" d="M138.3 481.7 47 110.9 38 427z"/><path fill="#595959" d="m80.5 317.6 21.3 97.2L68.4 506z"/><path fill="#d1d1d1" d="m111 159.6-30.5 158 42.6-6.1z"/><path fill="#d8d8d8" d="M335.8 59.3 193-47.1l-9.1 112.4z"/><path fill="#eaeaea" d="m345 126.1-57.8-155 9.1 352.6z"/><path fill="#616161" d="m314.5 326.7-48.6-155L275 430z"/><path fill="#d7d7d7" d="M345 338.9 290.1 199l-3 227.9z"/><path fill="#f8f8f8" d="m275 496.9-36.4 85 6-206.6z"/><path fill="#ddd" d="M281.1 624.5 345 500l-45.6-164z"/><path fill="#e1e1e1" d="m92.7-47.1 6 221.8 30.5-118.5z"/><path fill="#727272" d="m120 13.7 76 115.5-73 69.9z"/><path fill="#fdfdfd" d="M-47.1 62.3 19.8-1.5-1.5 250.7z"/><path fill="#909090" d="M-28.9 238.6 59.3 22.8 22.8 366.2z"/><path fill="#fff" d="M74.5 56.2 47-38v185.4z"/><path fill="#414141" d="M13.7-4.6 44-47 34.9 98.8z"/><path fill="#ededed" d="M266 211.2 253.7 348l-76 9z"/><path fill="#525252" d="m232.5 177.8-6 106.4-18.3-54.8z"/><path fill="#5c5c5c" d="M159.6 825.1 199 457.4l-76 161z"/><path fill="#bcbcbc" d="m123 779.5 3.1-243.1L35 563.7z"/><path fill="#787878" d="m83.6 740 66.8 79-63.8-252.2z"/><path fill="#6d6d6d" d="m35 825.1 161-54.7-24.3-76z"/><path fill="#ededed" d="m253.8 1.5-39.5 130.7 39.5 118.5z"/><path fill="#737373" d="m202.1 32 30.4 36.4-21.3 100.3z"/><path fill="#232323" d="m220.3 536.4 6.1-88.1 12.2 57.7z"/><path fill="#818181" d="m293.3 500-6.1-115.6L253.8 509z"/><path fill="#424242" d="M101.8 244.6 77.5 184l9.1 121.5z"/><path fill="#e8e8e8" d="m114 171.7-18.3 45.6 27.4 33.4z"/><path fill="#e1e1e1" d="M101.8 642.8 120 779.5l12.2-82z"/><path fill="#d3d3d3" d="m177.8 743 48.6-3-21.3-164z"/><path fill="#515151" d="m98.8 481.7-27.4-30.4 6.1 106.4z"/><path fill="#d7d7d7" d="m56.2 594.1 30.4-142.8L41 436.1z"/><path fill="#414141" d="m256.8 80.5 21.3 79V25.9z"/><path fill="#272727" d="m308.5-47.1-27.4 85L263-47z"/><path fill="#474747" d="M28.9 162.6 44 253.8l-27.4 9z"/><path fill="#dedede" d="m16.7 10.6-6 297.9-57.8-121.6z"/><path d="M159.6 22.8 98.8-19.8 247.7-47z"/><path fill="#020202" d="M86.6 22.8 35-44.1h76z"/><path fill="#262626" d="m226.4 661 24.3 21.3-12.1 27.3z"/><path fill="#dfdfdf" d="M281.1 694.4 345 548.6l-33.4 255.2z"/><path fill="#4b4b4b" d="m214.3 433 21.2 18.3-9-88.1z"/><path fill="#e2e2e2" d="M229.4 351 269 466.5l3-76z"/><path fill="#474747" d="m287.2 688.3-24.3-45.5L281 746z"/><path fill="#cacaca" d="m238.6 752.2 24.3-109.4L275 767.4z"/><path fill="#e6e6e6" d="M86.6 727.9 38 825l27.3-231z"/><path fill="#585858" d="M38 800.8-10.6 825l60.7-158z"/></g></svg>