<svg xmlns="http://www.w3.org/2000/svg" viewBox="0 0 298 900"><path fill="#444" d="M0 0h298v900H0z"/><g fill-opacity=".5"><path fill="#d0d0d0" d="m353.3 905.3-3.5-386.7L-51 954.5z"/><path fill="#8e8e8e" d="m163.5 915.8 189.8-411.3-407.8 439.4z"/><path fill="#d8d8d8" d="M353.3 47.5 54.5 202l-70.3 200.4z"/><path d="M353.3-54.5-54.5 124.8v179.3z"/><path fill="#c7c7c7" d="m202.1-22.9-232 7-24.6 144.2z"/><path fill="#9f9f9f" d="M135.4-54.5-54.5-26.4 1.8 103.7z"/><path fill="#181818" d="M353.3 100.2-54.5 462.3 248 652.1z"/><path fill="#222" d="m-54.5 378 35.2 506.2 249.6-256.7z"/><path fill="#939393" d="m258.4 188-291.8 70.4L353.3 12.3z"/><path fill="#acacac" d="m262 72-77.4 144.2L353.3 68.6z"/><path fill="#020202" d="m-1.8 216.2 98.5-102 10.5-144z"/><path fill="#161616" d="m-54.5 142.4 211-3.5L353.2-8.8z"/><path d="M22.9 202.1-54.5 385l66.8-70.4z"/><path d="M22.9 202.1-23 444.7l-21-179.3z"/><path fill="#c4c4c4" d="m8.8 346.3 140.6-123-116 56.2z"/><path fill="#676767" d="M75.6 177.5 202 139 8.8 283z"/><path fill="#565656" d="m135.4 704.9-73.9 137 204-214.4z"/><path fill="#232323" d="M44 806.8-54.6 712l298.8-105.5z"/><path fill="#515151" d="m51 370.9 84.4-112.5-189.9 147.7z"/><path fill="#424242" d="m89.6 444.7 95-77.3-95 225z"/><path fill="#c8c8c8" d="m226.8 828-56.3-70.4 52.7 21.1z"/><path fill="#a4a4a4" d="m177.5 729.5-3.5 102-200.4 123z"/><path fill="#616161" d="m103.7 641.6 31.7-73.8 35.1 70.3z"/><path fill="#545454" d="m-51 680.3-3.5-59.8 147.7 14z"/><path fill="#2a2a2a" d="m149.4 694.3 204-207.4-95-341z"/><path fill="#2c2c2c" d="M163.5 694.3 353.3 473 240.8 181z"/><path fill="#1f1f1f" d="M29.9 82.6 353.3 37l-73.8-91.4z"/><path fill="#202020" d="m33.4 212.7 320-214.5L79 47.5z"/><path fill="#7b7b7b" d="M244.3 177.5 75.6 321.7l49.2-88z"/><path fill="#a7a7a7" d="M184.6 209.2 54.5 290l35.1-77.3z"/><path fill="#696969" d="m314.6 560.7-94.9 66.8-10.5 66.8z"/><path fill="#959595" d="m353.3 529.1-80.8 165.2-130.1 66.8z"/><path fill="#6d6d6d" d="m114.3 817.4 70.3 77.3 98.4 3.5z"/><path fill="#868686" d="m114.3 820.9 24.6 133.6h214.4z"/><path fill="#7f7f7f" d="M19.3 237.3v77.3l59.8-123z"/><path fill="#777" d="m131.8 269-56.2-10.6-28.1-45.7z"/><path fill="#585858" d="m-5.3 813.9 3.5 102 77.4-98.5z"/><path fill="#c5c5c5" d="m-15.8 944 175.8-7-105.5-63.4z"/><path fill="#9b9b9b" d="M82.6 37H12.3l91.4-74z"/><path fill="#aeaeae" d="M321.7-54.5H114.3v73.8z"/><path fill="#080808" d="M103.7 1.8 68.6 142.4l-77.4 56.2z"/><path fill="#8c8c8c" d="m209.2 100.2 123-63.3-196.8 182.8z"/><path fill="#626262" d="m170.5 522 66.8-28-52.7-3.6z"/><path fill="#2e2e2e" d="m223.2 441.2-3.5 189.9 105.5-116z"/><path fill="#202020" d="m58 332.2 95 66.8-133.7 45.7z"/><path fill="#2c2c2c" d="M-37 536.1 75.7 416.6l28.1 165.2z"/><path fill="#464646" d="m86.1 314.6 52.8 73.9 102 24.6z"/><path fill="#222" d="M321.7 462.3 177.5 268.9l-56.2 42.2z"/><path fill="#7b7b7b" d="m279.5 687.3 73.8 218-130-80.9z"/><path fill="#8d8d8d" d="m300.6 624-70.3 14L174 810.5z"/><path fill="#767676" d="m226.8 89.6-3.6 52.8L89.6 181z"/><path fill="#a4a4a4" d="m307.6 47.5 45.7 56.2L174 177.5z"/><path fill="#333" d="M247.9-29.9 283 54.5l-80.9 49.2z"/><path fill="#2e2e2e" d="m290-54.5-45.7 123h-52.7z"/><path fill="#bebebe" d="m216.2 803.3 28.1-49.2-52.7 31.6z"/><path fill="#818181" d="M339.3 806.8 202 750.6 335.7 740z"/><path fill="#626262" d="m353.3 110.7-144.1 95 77.3-88z"/><path fill="#303030" d="m353.3 258.4-116 182.8-123-28.1z"/><path fill="#cecece" d="m216.2 835 7-10.6-14-7z"/><path fill="#848484" d="m342.8 810.4 10.5-77.4-158.2 116z"/></g></svg>