<svg xmlns="http://www.w3.org/2000/svg" viewBox="0 0 298 900"><path fill="#444" d="M0 0h298v900H0z"/><g fill-opacity=".5"><path fill="#c6c6c6" d="m149.4 954.5 204-949.2-407.9-14z"/><path fill="#939393" d="m22.9 954.5 319.9-1009L-54.5 30z"/><path fill="#979797" d="m-54.5 782.2 386.7-523.8-38.6 696z"/><path fill="#7c7c7c" d="m-47.5 638 400.8-520.2v826.1z"/><path fill="#0d0d0d" d="m311.1 325.2-87.9-172.3L262 82.6z"/><path fill="#ccc" d="M283 293.6 195.1 311l-14-260z"/><path fill="#5b5b5b" d="M167 515 22.9 395.5 65 181.1z"/><path fill="#828282" d="m216.2 409.6-270.7 73.8L167 121.3z"/><path d="m240.8 655.7 112.5-123-59.7 7z"/><path fill="#939393" d="m346.3 564.3 7-158.2-270.7-7z"/><path fill="#b7b7b7" d="m247.9 652.1-35.2 211L325.2 617z"/><path fill="#b1b1b1" d="m-54.5 792.8 116-95-14-200.3z"/><path fill="#202020" d="m184.6 156.4 7 63.3-70.3-63.3z"/><path fill="#9f9f9f" d="m353.3 89.6-221.5-130L-33.4 79z"/><path fill="#030303" d="m223.2 402.5-28-7 38.6-66.8z"/><path fill="#9c9c9c" d="m223.2 388.5 24.7 70.3 105.4-207.4z"/><path fill="#1a1a1a" d="M40.4 894.7-22.9 842l84.4 7z"/><path fill="#7e7e7e" d="m12.3 799.8 221.5 45.7-77.4 84.4z"/><path fill="#b6b6b6" d="m142.4 455.3-10.6-175.8 73.9 17.6z"/><path fill="#6d6d6d" d="m107.2 627.5 24.6-348-112.5 38.7z"/><path fill="#606060" d="m22.9 153 70.3-7.1L47.5-54.5z"/><path fill="#bbb" d="M205.7 160 79 72 54.5-54.4z"/><path fill="#3e3e3e" d="M135.4 694.3 93.2 828l-7-91.4z"/><path fill="#afafaf" d="m212.7 634.6 31.6 94.9-31.6 3.5z"/><path fill="#2d2d2d" d="m265.4 346.3 21.1-130h52.8z"/><path fill="#b9b9b9" d="m251.4 363.9 73.8-73.9 21 52.8z"/><path fill="#313131" d="m237.3 835 24.6 119.5 14-133.6z"/><path fill="#616161" d="m349.8 912.3-77.3-84.4 35.1-253.1z"/><path fill="#5b5b5b" d="m276 44-42.2-95 28.1 179.3z"/><path fill="#787878" d="M339.3 145.9 89.6-12.3 153 100.2z"/><path fill="#2f2f2f" d="M79.1 342.8 51 297l21-84.4z"/><path fill="#9b9b9b" d="M51 522 5.3 209.3l-24.6 151.2z"/><path fill="#ededed" d="m269 82.6 84.3-112.5v154.7z"/><path fill="#adadad" d="m244.3-33.4 109 49.2v168.8z"/><path fill="#454545" d="M51 532.6 72 610l45.8-49.3z"/><path fill="#4f4f4f" d="m156.4 497.5-14 45.7-49.2 24.6z"/><path fill="#494949" d="M-40.4 546.7 36.9 624 23 465.8z"/><path fill="#929292" d="m12.3 550.2 116 63.3L30 662.7z"/><path fill="#1d1d1d" d="M262 652.1 184.5 603l35.1 38.7z"/><path fill="#515151" d="m254.9 620.5-42.2 7 31.6 59.8z"/><path fill="#b3b3b3" d="m209.2 107.2-84.4-7L12.3 205.7z"/><path fill="#a9a9a9" d="M-5.3 8.8 58 184.6-44 174z"/><path fill="#c7c7c7" d="M107.2 293.6 65 283l7 24.6z"/><path fill="#565656" d="m135.4 293.6 52.7-73.9-42.2 21.1z"/><path fill="#111" d="m170.5 483.4-38.7-10.5L160 515z"/><path fill="#717171" d="m230.3 553.7-66.8-70.3 77.3-87.9z"/><path fill="#232323" d="m89.6 110.7 17.6-28-31.6 10.5z"/><path fill="#8c8c8c" d="M167-54.5 170.5 51l-95 42.2z"/><path fill="#6c6c6c" d="M110.7 631 8.7 905.4l-52.6-102z"/><path fill="#898989" d="M82.6 634.6 79.1 849l-59.8-56.2z"/><path fill="#cdcdcd" d="m195.1 103.7 21.1 130-59.8-130z"/><path fill="#787878" d="m145.9 100.2-7 87.9L72 202z"/><path fill="#2f2f2f" d="m-33.4 852.5 165.2-3.5-35.1 42.2z"/><path fill="#a1a1a1" d="m160 789.3-49.3 63.2-56.2-7z"/><path fill="#3e3e3e" d="m163.5 216.2-10.6-91.4 38.7 66.8z"/><path fill="#a5a5a5" d="m33.4 198.6 116-63.2-7-66.8z"/><path fill="#3c3c3c" d="m40.4 195.1 35.2-7 7 38.7z"/><path fill="#a9a9a9" d="M142.4 262v-45.8L65 167z"/><path fill="#9b9b9b" d="m209.2 595.9 21 35.2 73.9-116z"/><path fill="#acacac" d="m283 518.6-24.6 7 28.1 7z"/></g></svg>