<svg xmlns="http://www.w3.org/2000/svg" viewBox="0 0 298 900"><path fill="#444" d="M0 0h298v900H0z"/><g fill-opacity=".5"><path fill="#f2f2f2" d="M-54.5 891.2 237.3-54.5l116 963.3z"/><path fill="#adadad" d="M-54.5 954.5 23-54.5l330.4 646.9z"/><path fill="#848484" d="M145.9 652.1 353.3 33.4-54.5-36.9z"/><path fill="#b4b4b4" d="M353.3 511.5 328.7 93.2 131.8 51z"/><path fill="#e7e7e7" d="M353.3 550.2 26.3 849l21.2-239z"/><path fill="#c9c9c9" d="M311.1 690.8 26.4 849l235.5-390.2z"/><path fill="#696969" d="M353.3 395.5-54.5 673.2l298.8-523.8z"/><path fill="#868686" d="M163.5 68.6-26.4 550.2l348-221.5z"/><path fill="#fff" d="m353.3 138.9-126.5 10.5L191.6 51z"/><path fill="#4c4c4c" d="M304.1-44 124.8-54.4 353.3 167z"/><path fill="#666" d="m-51 866.6 260.2 21.1 45.7-119.5z"/><path fill="#7f7f7f" d="m93.2 937 193.3-42.3-73.8-232z"/><path fill="#424242" d="m254.9 353.3 3.5-189.8 35.2 63.3z"/><path fill="#9a9a9a" d="M247.9 381.4 290 230.3l24.6 249.6z"/><path fill="#0d0d0d" d="M-1.8 476.4 30 385l-77.4-84.4z"/><path fill="#878787" d="M205.7 574.8-54.5 279.5 5.3 36.9z"/><path fill="#d5d5d5" d="m156.4 835-137-56.3L188 768.2z"/><path fill="#646464" d="m-37 799.8 63.4 38.7-14.1-151.2z"/><path fill="#4e4e4e" d="M100.2 68.6 54.5 202 29.9 44z"/><path fill="#969696" d="M107.2 61.5-54.5 96.7 107.2-8.8z"/><path fill="#d9d9d9" d="M265.4 170.5 244.4 58 131.7 68.6z"/><path fill="#dadada" d="m251.4 167 49.2-49.2-116-28.2z"/><path fill="#6d6d6d" d="m89.6 395.5 130.1 165.2-109 17.6z"/><path fill="#a0a0a0" d="m72 546.7 165.3-28.1-203.9-24.7z"/><path fill="#b7b7b7" d="M-5.3 219.7 153 230.3l-10.5-52.8z"/><path fill="#666" d="m135.4 293.6-189.9-35.2 175.8-52.7z"/><path fill="#5b5b5b" d="m262 469.3-91.5-175.7 3.5 147.6z"/><path fill="#9e9e9e" d="M142.4 427.1 160 293.6 33.4 353.3z"/><path fill="#717171" d="m177.5 694.3 21.1 84.4L353.3 733z"/><path fill="#ccc" d="m33.4 680.3 320-63.3v98.4z"/><path fill="#353535" d="M251.4-33.4 181 29.9l-17.6 73.8z"/><path fill="#666" d="m195.1 40.4 91.4-94.9L290 79.1z"/><path fill="#818181" d="M258.4 543.2 283 631l70.3-95z"/><path fill="#c2c2c2" d="m188 501 161.8-59.8-147.7 172.3z"/><path fill="#d4d4d4" d="m283 856-42.2-123 102 98.4z"/><path fill="#6a6a6a" d="M335.7 712 269 743.5 339.3 856z"/><path fill="#373737" d="M205.7 195.1v63.3l31.6-102z"/><path fill="#626262" d="M290 212.7h-80.8l144.1-42.2z"/><path fill="#4e4e4e" d="M-33.4 631 58 406 44 539.7z"/><path fill="#848484" d="m-54.5 701.4 102-260.2-102 10.6z"/><path fill="#434343" d="m47.5 891.2 52.7-70.3 38.7 14z"/><path fill="#9f9f9f" d="m-54.5 880.7 277.7 73.8 24.7-109z"/><path fill="#a4a4a4" d="M37 536.1 156.3 589l3.6 91.4z"/><path fill="#afafaf" d="m-54.5 638 253.1-70.2L-12.3 726z"/><path fill="#464646" d="m269 399 84.3-3.5-98.4 42.2z"/><path fill="#929292" d="m328.7 567.8 24.6-126.6-98.4-3.5z"/><path fill="#d4d4d4" d="m153 12.3-14.1 59.8 24.6 66.8z"/><path fill="#636363" d="m12.3 44 126.6 28 14 73.9z"/><path fill="#a7a7a7" d="M233.8 300.6 107.2 202l49.2 102z"/><path fill="#707070" d="m174 219.7-35-17.6 38.6 91.5z"/><path fill="#d9d9d9" d="m15.8 785.7 137.1 3.6-123 49.2z"/><path fill="#d1d1d1" d="m15.8 796.3 147.7-45.7-133.6 87.9z"/><path fill="#a2a2a2" d="m89.6 138.9 52.8 94.9L93.2 26.4z"/><path fill="#3a3a3a" d="m61.5 82.6-63.3 28.1 31.7 7z"/><path fill="#c3c3c3" d="m290 367.4-38.6 14-17.6 70.4z"/><path fill="#aaa" d="m290 367.4 17.6-45.7-91.4 10.5z"/><path fill="#6f6f6f" d="M54.5 620.5 5.3 662.7l42.2-158.2z"/><path fill="#626262" d="m100.2 564.3 56.2-105.5-63.2-10.6z"/><path fill="#ddd" d="m177.5 669.7 172.3-102-186.3 31.7z"/><path fill="#e1e1e1" d="M212.7 613.5 349.8 638l-14 45.7z"/></g></svg>