<svg xmlns="http://www.w3.org/2000/svg" viewBox="0 0 298 900"><path fill="#444" d="M0 0h298v900H0z"/><g fill-opacity=".5"><path fill="#f2f2f2" d="m-54.5 873.6 295.3-928L353.3 954.4z"/><path fill="#a1a1a1" d="M5.3 954.5 1.8-54.5l351.5 182.8z"/><path fill="#e1e1e1" d="M-54.5 877.1 255 465.8l98.4 196.9z"/><path fill="#cfcfcf" d="m-54.5 704.9 253.1-147.7L353.3 698z"/><path fill="#797979" d="M-37 680.3 124.9-54.5 353.3 385z"/><path fill="gray" d="M-29.9 655.7 107.2-37l246.1 407.8z"/><path fill="#fff" d="m342.8 131.8-133.6 31.7-21.1-116z"/><path fill="#6f6f6f" d="M353.3 363.9 153 223.2l200.4-87.8z"/><path fill="#727272" d="M223.2 673.2-5.3 954.5l270.7-123z"/><path fill="#d5d5d5" d="M184.6 789.3 5.3 835 86 522z"/><path fill="#5a5a5a" d="m353.3 58-137-112.5-140.7 109z"/><path fill="#5e5e5e" d="M353.3 163.5 311.1 5.3 121.3-54.5z"/><path fill="#6b6b6b" d="m-54.5 603 175.8-176L202 564.3z"/><path fill="#979797" d="M47.5 402.5 160-12.3v457z"/><path fill="#e4e4e4" d="M240.8 68.6 353.3 181l-218-109z"/><path fill="#d7d7d7" d="m230.3 58 123 102-182.8-56.3z"/><path fill="#525252" d="M-54.5 726 23 712l-7 123z"/><path fill="#a5a5a5" d="m-19.3 571.3 59.7 87.9L37 792.8z"/><path fill="#565656" d="m184.6 490.4-14-193.3 73.7 140.6z"/><path fill="#343434" d="m198.6 430.7-35.1 38.6L188 399z"/><path fill="#4f4f4f" d="m145.9 831.4-102 59.8-21-52.7z"/><path fill="#bebebe" d="m93.2 944-147.7 10.5V761z"/><path fill="#0b0b0b" d="m29.9 402.5-84.4 126.6L1.8 353.3z"/><path fill="#9b9b9b" d="M40.4-29.9 12.3 360.4-43.9 195z"/><path fill="#b9b9b9" d="m233.8 455.3 95-154.7-59.9 10.5z"/><path fill="#696969" d="m265.4 304.1-52.7-165.2 98.4 70.3z"/><path fill="#c7c7c7" d="m-1.8 216.2 59.8 14 84.4-45.6z"/><path fill="#b4b4b4" d="m163.5 307.6-21.1-123-42.2-7z"/><path fill="#454545" d="M167 205.7 121.3-8.8l-7 112.5z"/><path fill="#5f5f5f" d="M335.7 1.8 170.5 65l-225-112.5z"/><path fill="#818181" d="m290 631 63.3-140.6-98.4 59.8z"/><path fill="#e2e2e2" d="m167 676.8 165.2-105.5-116 17.6z"/><path fill="#a6a6a6" d="m65 420.1 70.4 232-95-94.9z"/><path fill="#5d5d5d" d="M58 395.5-8.8 624l63.3-28z"/><path fill="#666" d="m353.3 736.5-24.6 45.7-140.6-87.9z"/><path fill="#bbb" d="M205.7 690.8 353.3 726 262 631z"/><path fill="#cfcfcf" d="m262 824.4 91.3 80.9-112.5-186.4z"/><path fill="#7d7d7d" d="m153 796.3 200.3 102-137 56.2z"/><path fill="#fff" d="m167 72-21.1-7 7 45.7z"/><path fill="#1e1e1e" d="m167 72 10.5 3.6-14 35.1z"/><path fill="silver" d="M353.3 444.7 131.8 515l109 28.2z"/><path fill="#c5c5c5" d="m353.3 402.5-31.6 242.6-35.2-218z"/><path fill="#5d5d5d" d="m51 223.2 63.3-10.5 35.1 116z"/><path fill="#a2a2a2" d="m96.7 346.3-116-35.2 112.5 84.4z"/><path fill="#707070" d="m153 451.8-52.8 24.6 56.2 193.3z"/><path fill="#939393" d="m219.7 420.1-91.4 95 91.4 63.2z"/><path fill="#cdcdcd" d="M198.6 785.7 58 592.4l-17.6 239z"/><path fill="#c8c8c8" d="M170.5 831.4 93.2 550.2v253.1z"/><path fill="#4c4c4c" d="m121.3 75.6-175.8 24.6 87.9 17.6z"/><path fill="#3e3e3e" d="M-12.3-22.9 65 79.1-54.5-8.8z"/><path fill="#dfdfdf" d="M304.1 110.7 247.9 146l-17.6 52.7z"/><path fill="#8e8e8e" d="m163.5 272.5 80.8-130.1-87.9 7z"/><path fill="#acacac" d="M44 51 19.2 19.3l84.4 7z"/><path fill="#3c3c3c" d="M54.5 117.8 43.9 160l49.3-21.1z"/><path fill="#d9d9d9" d="m251.4 297-3.5 17.6-63.3-21z"/><path fill="#3c3c3c" d="m254.9 335.7 24.6-63.2-21.1-84.4z"/><path fill="#606060" d="M314.6 381.4 153 494l109-28z"/><path fill="#8e8e8e" d="M307.6 356.8 325.2 494l-63.3-28z"/><path fill="#6f6f6f" d="m195.1 884.2 63.3-109-73.8-70.3z"/><path fill="#878787" d="m177.5 761.1 102-45.7L181 698z"/></g></svg>