<svg xmlns="http://www.w3.org/2000/svg" viewBox="0 0 300 400"><path fill="#444" d="M0 0h300v400H0z"/><g fill-opacity=".5"><path fill="#6e6e6e" d="m-10.2 358.6 6.3-382.8 314 128.1z"/><path fill="#585858" d="M-11.7 413.3 91.4-19.5l232.8-3.2z"/><path d="M47.7 424.2 96 207l-62.5 82.8z"/><path fill="#989898" d="M44.5 424.2 13.3 243l-36 181.2z"/><path fill="#7b7b7b" d="m108.6 264.8 111 112.5L68 396.1z"/><path d="m129 335.2 23.3 26.5-14 62.5z"/><path fill="#868686" d="m283.6 404 40.6-258-61 83z"/><path fill="#303030" d="m252.3 424.2-54.6-248.4-62.5 89z"/><path fill="#828282" d="m119.5-2.3 204.7 54.6-46.9-76.5z"/><path fill="#4a4a4a" d="m25.8-4 162.5 92.3 65.6-71.9z"/><path fill="#c4c4c4" d="M89.8 282 79 299.2l-53.1-7.8z"/><path d="m100.8 280.5-59.4-26.6-7.8 34.4zm15.6-32.8V282l84.4-12.5z"/><path fill="#747474" d="m214.8 319.5-112.5-3 100-39.2z"/><path fill="#131313" d="m107 63.3 4.7 31.2L-8.6 79z"/><path fill="#828282" d="M157 89.8 54 110.2 41.3 78.9z"/><path d="m104 329-73.5 4.6 29.7-36z"/><path fill="#7e7e7e" d="m79 374.2-37.6-39 100 1.5z"/><path d="m64.8 219.5 51.6 14-7.8-23.3z"/><path fill="#929292" d="m27.3 210.2 57.9-15.7 45.3 17.2z"/><path d="m110.2 99.2 79.6 20.3-81.2 3.2z"/><path fill="#757575" d="m171 57-96.8 43.8 1.6 34.4z"/><path d="M277.3 424.2 204 394.5l34.4-18.7z"/><path d="m268 414.8-107.8 9.4 68.7-48.4zM41.4 124.2l-4.7-18.7 36 15.6z"/><path fill="#939393" d="m30.5 121 37.5 6.3-92.2 67.2z"/><path d="m275.8 257-48.5-14 9.4 32.8z"/><path fill="#4c4c4c" d="M300.8 247.7 218 283.6l84.3 4.7z"/><path fill="#848484" d="m280.5 143 43.7-76.6L214.8 129z"/><path fill="#131313" d="m254 193-4.8-40.7-71.9 86z"/><path d="m88.3 66.4-15.6 59.4L71 72.7z"/><path d="m88.3 66.4 17.2 18.8H74.2zm167.2 156.3 3-12.5 45.4 4.6z"/><path fill="#969696" d="m322.7 216.4-86 17.2 87.5 20.3z"/><path fill="#949494" d="M75.8 263.3H53.9l18.8-53.1z"/><path fill="#707070" d="M77.3 263.3-21 189.8l23.4-53z"/><path d="m197.7 61.7-40.7 14 43.8 7.9z"/><path fill="#858585" d="m239.8 60.2-46.8 25-31.3 64z"/><path fill="#1d1d1d" d="m219.5 91.4 104.7-20.3-82.8-34.4z"/><path fill="#606060" d="m200.8 72.7 98.4-1.6-184.4-51.6z"/><path d="m35.2 360.2 42.1 62.5L60.2 343z"/><path fill="#020202" d="m39.8 380.5 31.3 42.2-9.4-76.6z"/><path fill="#7c7c7c" d="m93 158.6 139 1.6-62.5 51.5z"/><path fill="#404040" d="m86.7 174.2 98.5-4.7-51.6 37.5z"/><path d="m196 244.5-79.6 28.2 73.4 3z"/><path fill="#737373" d="m194.5 288.3 7.8-51.6 37.5-21.9z"/><path fill="#aeaeae" d="m104 124.2 46.8 12.5 34.4-14z"/><path fill="#1a1a1a" d="m113.3 136.7 9.4 29.7 28-37.5z"/><path fill="#141414" d="m163.3 114.8 67.2 6.3 17.2-21.9z"/><path fill="#2c2c2c" d="m189.8 149.2 42.2-3.1-23.4-21.9z"/><path fill="#ccc" d="m316.4 166.4-11 43.8h-29.6z"/><path fill="#555" d="m263.3 224.2-50-28.1 62.5 78.1z"/><path fill="#9e9e9e" d="m83.6 241.4 42.2 57.8-15.6-53.1z"/><path fill="#8a8a8a" d="m114.8 250.8 12.5-32.8 23.5 39z"/><path fill="#929292" d="m196 338.3-34.3 42.2 51.6 6.2z"/><path fill="#5e5e5e" d="m250.8 299.2-64 40.6 137.4 20.4z"/><path d="m113.3 280.5-42.2 39 28.1-46.8z"/><path d="M88.3 332 32 305.5l51.6-6.3z"/><path fill="#7a7a7a" d="M30.5 241.4 49.2 304l-73.4-26.6z"/><path fill="#828282" d="M-24.2 279 46 343l-68.8 70.3z"/></g></svg>