<svg xmlns="http://www.w3.org/2000/svg" viewBox="0 0 300 460"><path fill="#444" d="M0 0h300v460H0z"/><g fill-opacity=".5"><path fill="#fff" d="M328-27.9 288.3 488-27.9 17z"/><path fill="#dedede" d="M220.1-15.3 19 488l-46.8-381z"/><path fill="#c7c7c7" d="m157.2 486-185-34L9.8-28z"/><path fill="#939393" d="m328 457.3-356 1.8 50.4-487z"/><path d="M148.2 471.7 103.3 229l82.7 16.2z"/><path fill="#080808" d="M159 466.3 99.7 248.9l71.9-14.4z"/><path fill="#d5d5d5" d="M151.8 487.9 306.4 441V-28z"/><path fill="#b3b3b3" d="m162.6 417.8 165.3 70L223.7-27.8z"/><path d="m214.7 270.4-3.6 43.2-66.5-86.3z"/><path fill="#828282" d="m220.1 324.3-37.7-44.9-100.6 68.3z"/><path fill="#a6a6a6" d="M274-4.5-27.9-8 2.7 417.8z"/><path fill="#a6a6a6" d="m256-27.9-280.3 9 9 506.8z"/><path d="M177 313.6 98 283l37.7-64.7z"/><path fill="#020202" d="m107 295.6 61-55.7 36 27z"/><path fill="#aeaeae" d="m-27.9 460.9 172.5 27L17.1 155.4z"/><path fill="#a6a6a6" d="M-27.9 408.8 125 482.5 44 275.8z"/><path d="m150 365.7 18 95.2-28.7 1.8z"/><path fill="#bdbdbd" d="m164.4 358.5 3.6 102.4 160-57.5z"/><path d="m200.4 263.2 1.7 54 14.4-27z"/><path fill="#b7b7b7" d="m178.8 331.5-16.2 73.7 115-131.2z"/><path fill="#b9b9b9" d="m286.6-27.9-158.1 178 185 269.5z"/><path fill="#afafaf" d="M328-4.5 166.1 6.3 277.6 195z"/><path fill="#838383" d="m209.3 320.7-73.6-18-7.2 34.2z"/><path fill="#6d6d6d" d="m195 322.5-59.3-19.7 21.5 30.5z"/><path fill="#797979" d="M157.2 196.8 103.3 220l52.1 23.4z"/><path fill="#b6b6b6" d="M159 229.1 274 63.8l-25 233.6z"/><path fill="#7f7f7f" d="m96.1 340.5 37.8 30.6 9 62.8z"/><path fill="#9a9a9a" d="m92.5 313.6-70 27 97 46.6z"/><path fill="#737373" d="M263.2 446.5 310 479l16.1-68.3z"/><path fill="#b4b4b4" d="M162.6 487.9h124L218.3 283z"/><path fill="#a3a3a3" d="m180.6 272.2 27 21.6-43.2-3.6z"/><path fill="#161616" d="m175.2 261.4-16.2 54-23.3-79.1z"/><path d="m209.3 317.1-12.5-5.3 9-36z"/><path fill="#c3c3c3" d="m268.6 243.5 1.8 147.3L328 243.5z"/><path d="m126.7 329.7 7.2-44.9-30.6-7.2z"/><path fill="#0c0c0c" d="M126.7 329.7 141 231l-37.8 45z"/><path fill="#9e9e9e" d="M209.3 13.5-18.9-19l41.4 215.7z"/><path fill="#9f9f9f" d="m144.6 213 30.6-5.5-28.8 41.4z"/><path fill="#969696" d="M153.6 207.5h21.6L146.4 249z"/><path fill="#090909" d="m151.8 428.6 21.6-97-48.5 16.1z"/><path fill="#757575" d="m142.9 423.2-23.4-93.5-3.6 97z"/><path fill="#a1a1a1" d="M195 360.3 168 283l30.6 1.8z"/><path fill="#969696" d="M187.8 319 168 283l23.4-7.2z"/><path d="m187.8 254.3 25.1 32.3-36-19.8z"/><path fill="#060606" d="m207.5 268.6 3.6 23.4-34.1-34.1z"/><path fill="#aaa" d="M-13.5 301 232.7 89 103.3 24.2z"/><path fill="#aaa" d="m-.9 292 230-226.4-50.3-82.7z"/><path fill="#7b7b7b" d="m103.3 292 14.4 14.4-7.2 43z"/><path fill="#7f7f7f" d="m108.7 247-14.4 55.8-1.8-48.5z"/><path fill="#b0b0b0" d="m222 480.7-21.6-167.1-39.6 109.6z"/><path fill="#b8b8b8" d="M328 434 216.4 283l-27 125.8z"/><path fill="#707070" d="M124.9 213 114 239.8l52.1-41.3z"/><path fill="#a1a1a1" d="M117.7 227.3 62 283l75.5-143.7z"/><path fill="#707070" d="m133.9 306.4 66.5 9-68.3 26.9z"/><path fill="#777" d="m162.6 317.1 21.6 7.2-43.1 10.8z"/><path fill="#959595" d="M-24.3 49.4 17.1-2.7l48.5 80.9z"/><path fill="#989898" d="M-27.9 85.4-.9-28l27 161.8z"/><path fill="#080808" d="m146.4 441.1 23.4 27-7.2-39.5z"/><path fill="#0a0a0a" d="m144.6 432.1 12.6 55.8H134z"/></g></svg>