<svg xmlns="http://www.w3.org/2000/svg" viewBox="0 0 300 148"><path fill="#4c4c4c" d="M0 0h300v148H0z"/><g fill-opacity=".5"><path fill="#fff" d="M299.4-18.2-18.2 54.5 299.4 167z"/><path fill="#ccc" d="M299.4-18.2-18.2 141.2 300.6 167z"/><path fill="#b9b9b9" d="M308.8 4.1 5.3 167-18.2-17z"/><path fill="#919191" d="m237.3 97.9-255.5 69L11.1-18z"/><path d="m136.5 63.9 23.5 87.9 12.9-82z"/><path fill="#cecece" d="m318.2 145.9-167.6 21 123-185z"/><path fill="#aaa" d="m219.7-3-177 170L-18.1 1.8z"/><path fill="#a2a2a2" d="m210.4-17-218 184-10.6-124.2z"/><path d="m151.8 55.7 34 29.3-44.6 8.2z"/><path d="M155.3 68.6 140 81.4l27 13z"/><path fill="#b4b4b4" d="M103.7 55.7 53.3 167l98.5-22.3z"/><path fill="#a5a5a5" d="M128.3-18.2-17 167l166.4-27z"/><path d="m161.1 103.7 4.7 54-21-51.6z"/><path fill="#858585" d="m129.5 121.3 28.1 16.4-16.4-58.6z"/><path fill="#ababab" d="M168.2 79.1 280.7 167l-117.2-28.1z"/><path fill="#b8b8b8" d="m212.7 6.4 21 126.6-66.7-3.5z"/><path d="m171.7 73.2 11.7 8.2-3.5 15.3z"/><path fill="#979797" d="m198.6 167 24.6-93.8 1.2 73.9z"/><path fill="#b0b0b0" d="m126 74.4-4.7-92.6L318.2-1.8z"/><path fill="#bcbcbc" d="m170.5-6.4 65.6 69.1 72.7-59.8z"/><path fill="#d2d2d2" d="m297 167-64.4-65.6 85.6-109z"/><path fill="#d1d1d1" d="m318.2 131.8-61-66.8 61-25.7z"/><path d="m158.8 144.7-7-31.6 15.2-12.9z"/><path fill="#a8a8a8" d="m104.9 153 46.9-34L38 61.4z"/><path fill="#8d8d8d" d="M69.7-18.2 23 88.5-18 5.3z"/><path fill="#818181" d="M48.6-18.2-2.9 25.2-18.2 8.8z"/><path fill="#010101" d="m140 80.3 13-18.8-2.4 38.7z"/><path fill="#828282" d="M170.5 58 140 68.6l14.1-21.1z"/><path fill="#969696" d="m164.6 80.3 11.8 1.1 1.1 32.9z"/><path fill="#bcbcbc" d="m164.6 121.3 68-111.3L194 165.8z"/><path fill="#020202" d="M161.1 135.4 143.6 167l28-1.2z"/><path fill="#848484" d="M156.4 123.6 140 119l-4.6-36.3z"/><path fill="#acacac" d="m175.2 59.2-18.8 2.3v7z"/><path fill="#bbb" d="m246.7 6.4-39.9 116-42.2-72.6z"/><path fill="#090909" d="m177.5 80.3-12.9-14L139 83.7z"/><path fill="#a2a2a2" d="m63.9 54.5 118.3 1.2-94.9-73.9z"/><path fill="#9c9c9c" d="M-18.2 66.2 119-18.2 14.6 167z"/><path fill="#a2a2a2" d="m40.4 63.9 114.9-82L28.7 150.5z"/><path fill="#7c7c7c" d="m153 92-3.6 11.7 29.3-8.2z"/><path fill="#6f6f6f" d="m153 100.2 18.7 1.2 8.2-8.2z"/><path d="m179.9 78 1.2 17.5-4.7-1.2z"/><path fill="#b0b0b0" d="m198.6 68.6-34 49.2 1.2 43.3z"/><path fill="#6a6a6a" d="m222 100.2-3.4-14-2.4 9.3z"/><path fill="#bcbcbc" d="m220.9 130.7-39.8 10.5 36.3-50.4z"/><path fill="#949494" d="m235 167-4.7-31.6L116.6 167z"/><path fill="#b1b1b1" d="M216.2 167h-50.4l1.2-58.6z"/><path fill="#9e9e9e" d="M135.4 103.7 126 61.5l17.6 5.9z"/><path fill="#aeaeae" d="M109.6 90.8 156.4 24l-28 10.6z"/><path fill="#b7b7b7" d="m199.8 110.7-15.2-55-4.7 75z"/><path fill="#b7b7b7" d="M206.8 117.8 184.6 52l-4.7 98.5z"/><path fill="#0a0a0a" d="M161.1 67.4 180 85l-3.5-10.6z"/><path fill="#aeaeae" d="m161.1 60.4 27 5.8-12.9 8.2z"/><path fill="#c6c6c6" d="M220.9 59.2 236.1 160l82-23.5z"/><path fill="#c5c5c5" d="m222 72 14.1 89.1 70.3 1.2z"/><path fill="#a8a8a8" d="m170.5 80.3 8.2 19.9-10.5-8.2zm-7 44.5 2.3 18.8 14-7z"/><path fill="#131313" d="m150.6 164.6 9.4-44.5 3.5 27z"/><path fill="#959595" d="m135.4 167 8.2-50.4L161 167z"/><path fill="#848484" d="M169.3 68.6 146 59.2l14-5.9z"/><path fill="#6a6a6a" d="m144.7 68.6 4.7-9.4 10.6-5.9z"/></g></svg>