<svg xmlns="http://www.w3.org/2000/svg" viewBox="0 0 300 168"><path fill="#4c4c4c" d="M0 0h300v168H0z"/><g fill-opacity=".5"><path fill="#fff" d="m-18.2 55.7 317.6 131.2V-18z"/><path fill="#cecece" d="m-18.2 4.1 330.5 160.5-11.7-182.8z"/><path fill="#f0f0f0" d="m.6 65 295.3 122-314-18.8z"/><path fill="#929292" d="m6.4-18.2 220.4 136-245 37.5z"/><path d="M164.6 86.1h-32.8L156.4 187z"/><path d="m163.5 88.5-27 3.5 16.4 75z"/><path fill="#a6a6a6" d="m260.7-18.2-266 32.8L30 187z"/><path fill="#a5a5a5" d="M224.4-12.3 5.3 40.4l75 120.7z"/><path fill="#d2d2d2" d="m155.3 142.4 144.1 44.5L318.2-4z"/><path fill="#bbb" d="m145.9 187 105.5-54 62-151.2z"/><path d="m174 116.6 2.4-17.6-17.6-9.4z"/><path fill="#bababa" d="M220.9 107.2 164.6 187l16.5-117.2z"/><path fill="#929292" d="m123.6 130.7 44.6-11.8 2.3-15.2z"/><path fill="#060606" d="m142.4 81.4 25.8 37.5-29.3-18.7z"/><path fill="#a6a6a6" d="m170.5 101.4-3.5 37.5-7-36.4z"/><path fill="#afafaf" d="M62.7 103.7 148.2 58l-42.1 129z"/><path d="m160 179.9-4.7-45.7-9.4 52.7z"/><path fill="#b6b6b6" d="m224.4 153-35.1-69.2-34 70.3z"/><path fill="#939393" d="M138.9 25.2 12.3 89.6-18.2-18.2z"/><path fill="#898989" d="M83.8-18.2 12.3 38.1-18.2 1.8z"/><path fill="#858585" d="m140 113 10.6 43.4-15.2 30.5z"/><path fill="#a7a7a7" d="m115.4 110.7 29.3 52.8-28.1 2.3z"/><path fill="#d2d2d2" d="m318.2 187-68-29.4 45.7-116z"/><path fill="#c5c5c5" d="m304.1 115.4-78.5 59.8V41.6z"/><path fill="#989898" d="m201 169.3 11.7-69.1 14 73.8z"/><path fill="#bbb" d="m160 136.5 44.5-45.7 11.7 58.6z"/><path fill="#040404" d="m172.9 99-41 4.7L147 85z"/><path fill="#767676" d="m155.3 74.4-20 20 3.6-20z"/><path fill="#b2b2b2" d="M158.8-18.2h148.8l-145.3 109z"/><path fill="#b4b4b4" d="M318.2 7.6v45.7L156.4-2.9z"/><path fill="#787878" d="m145.9 109.6-1.2 11.7 25.8-1.2z"/><path fill="#0b0b0b" d="M145.9 89.6h17.6l16.4 16.5z"/><path fill="#bebebe" d="m164.6 76.8 18.8 38.6 42.2-14z"/><path fill="#b3b3b3" d="m158.8 160 31.6-57.5-30.4 27z"/><path fill="#b0b0b0" d="m161.1 187 20-76.3-21.1 18.8z"/><path fill="#080808" d="m138.9 94.3 11.7-11.7-7 42.2z"/><path d="m143.6 117.8 3.5-9.4-10.6-7z"/><path fill="#8e8e8e" d="m162.3 79.1-9.4-14-2.3 25.7z"/><path fill="#b0b0b0" d="M185.7 89.6 147.1 37l17.5 54z"/><path fill="#070707" d="m143.6 124.8 11.7 35.2 4.7-34z"/><path fill="#7c7c7c" d="m131.8 90.8 2.4 44.6 14 4.6z"/><path fill="#a8a8a8" d="m119 .6 94.9-18.8L66.2 187z"/><path fill="#a2a2a2" d="M104.9-18.2h84.4L38 140z"/><path fill="#777" d="m211.5 107.2 5.9 1.2-4.7 20z"/><path fill="#c3c3c3" d="M284.2 149.4 197.5 92l32.8-29.3z"/><path fill="#c7c7c7" d="M217.4 121.3V154l43.3 5.9z"/><path fill="#bbb" d="m223.2 140 35.2-18.7-10.5 24.6z"/><path d="m174 112 1.2-9.5-7 14.1z"/><path fill="#adadad" d="m191.6 148.2-30.5-45.7 9.4 31.7z"/><path fill="#969696" d="m-18.2 69.7 82-87.9 68 13z"/><path fill="#959595" d="m-18.2 69.7 80.9-82 86.7-5.9z"/><path fill="#b0b0b0" d="m168.2 126-10.6 28 14 32.8z"/><path fill="#b6b6b6" d="m161.1 127.1 36.4 28.2-14.1 31.6z"/><path fill="#bababa" d="m212.7 165.8-31.6-79.7 31.6 37.5z"/><path fill="#b7b7b7" d="m204.5 153-22.3-77.4-15.2 89z"/><path fill="#d0d0d0" d="m301.8 96.7-1.2 71.5-52.7 18.7z"/><path fill="#cfcfcf" d="m286.5 115.4 11.7 70.3-21-39.8z"/><path fill="#7b7b7b" d="m150.6 83.8-5.9-9.4-4.7 11.7z"/><path fill="#979797" d="m130.7 100.2 18.7-25.8L123.6 85z"/></g></svg>