<svg xmlns="http://www.w3.org/2000/svg" viewBox="0 0 299 421"><path fill="#394467" d="M0 0h299v421H0z"/><g fill-opacity=".5"><path fill="#f7dfa9" d="m-25.5 17.3 278 429.2 72.3-472z"/><path fill="#a2998a" d="m-12.3-10.7 309.1 457.2 28-444z"/><path fill="#eca47f" d="M250.8 446.5-14 425l-3.3-391.4z"/><path fill="#67562b" d="M93 446.5H-25.6l18.1-213.8z"/><path fill="#493335" d="m48.5 219.5 74-146.3 184.2 189.1z"/><path fill="#473f30" d="m171.9 157 55.9-18L213 351z"/><path fill="#cddcf6" d="M163.6 408.7 185 217.9l-83.9 47.7z"/><path fill="#aebecf" d="M310 443.2 140.6 234.3 55.1 259z"/><path d="m167 342.9 4.9 102 54.2-56z"/><path fill="#010000" d="m167 352.8 59.1 93.7-8.2-70.7z"/><path fill="#c2cedd" d="m324.8 273.8-32.9 172.7-69-200.6z"/><path fill="#aab4c9" d="m300.1 265.6-77.3 171-4.9-131.5z"/><path fill="#cdc8b3" d="m260.7 224.5 64-238.5L91.4-25.5z"/><path fill="#f3faff" d="m73.2 285.3 34.5 42.8-23 97z"/><path d="m130.7 311.6 6.6 26.4-57.5-36.2z"/><path fill="#ec001d" d="m130.7 446.5 26.4-93.7-64.2-13.2z"/><path fill="#f1fdff" d="m221.2 366-74-39.6-51 11.6z"/><path fill="#600000" d="M53.4 176.8 93 234.3 50.2 264z"/><path fill="#9c957a" d="M63.3-25.5-25.5 116 144 236z"/><path fill="#d3d4db" d="m291.9 168.6-39.5-87.2-41 156.2z"/><path fill="#635743" d="m231 242.6 8.3-151.3-49.4-6.6z"/><path fill="#fff" d="m163.6 162 11.5-41.1 1.7 83.8z"/><path fill="#2f2c22" d="m165.3 245.9-56-123.4 56 24.7z"/><path fill="#e7fcff" d="m43.6 130.7-1.7 85.6 21.4-74z"/><path fill="#6d6d6a" d="m60 88 67.5 126.6-80.6-31.2z"/><path fill="#210000" d="m306.7 227.8-69-8.3 77.2 57.6z"/><path fill="#928088" d="m178.4 242.6-28-46 149.7 46z"/><path d="m135.7 329.7-60.9-54.2L93 318.2z"/><path fill="#a6abb6" d="M180 357.7 66.7 265.6 183.4 236z"/><path d="m324.8 387.3-64.1-3.3 64 24.7z"/><path fill="#f3f9fb" d="m296.8 426.8-82.2-46 110.2 24.6z"/><path fill="#faffff" d="m130.7 221.2-16.4 5 16.4-61z"/><path fill="#3f0000" d="M132.4 224.5 106 237.6h34.5z"/><path fill="#404669" d="m168.6 315 46-33 19.7 52.7z"/><path fill="#a3a8b4" d="M88 221.2 213 282l-74 51z"/><path fill="#bed4d0" d="m5.8 165.3 19.7 75.6 5-131.5z"/><path fill="#3a4746" d="m27.1 171.9-52.6 78.9V180z"/><path fill="#15313d" d="m288.6 211.3-23-26.3 59.2-11.5z"/><path fill="#000a38" d="m324.8 213-1.6-118.4-33 67.4z"/><path fill="#fff" d="m167 334.7-16.5 59.2 18 52.6z"/><path fill="#4b0004" d="m168.6 339.6 59.2 85.5-59.2 21.4z"/><path fill="#f8ffff" d="m91.3 367.6 32.9 78.9L99.5 435z"/><path fill="#4a351f" d="m69.9 354.4-13.2 77.3 29.6 14.8z"/><path fill="#2a0001" d="m86.3 287-32.9-13.2-4.9-36.2z"/><path fill="#a6acb4" d="M28.8 367.6 58.4 287l-16.5-69.1z"/><path fill="#f2ffff" d="M171.9 347.8 71.5 310l47.7 37.8z"/><path fill="#dcdfeb" d="m106 329.7-46-54.2 24.7 60.8z"/><path d="m56.7 111 18.1 16.5H50.2z"/><path fill="#f1f1f3" d="m79.8 150.5-36.2-23-3.3 28z"/><path fill="#c82f42" d="m96.2 336.3 59.2 23-1.6 82.3z"/><path fill="#c33b4a" d="m93 338 62.4 44.4-41.1 64z"/><path fill="#b9000a" d="m76.5 351.1-5-56-19.7-4.8z"/><path fill="#52484e" d="m56.7 366-24.6-39.6 18-24.6z"/><path fill="#c30005" d="M324.8 444.8 242.6 430l-1.7-31.2z"/><path fill="#a61937" d="m301.8 440-52.7 6.5-8.2-47.7z"/><path fill="#fcffff" d="m176.8 175.1-5 52.7-6.5-31.3z"/><path fill="#272329" d="m145.5 150.5 13.2 88.8-26.3-24.7z"/><path fill="#393935" d="m137.3 71.5 31.3 19.8L129 162z"/><path fill="#c1b9a3" d="m58.4-25.5 65.8 110.2 182.5-9.9z"/></g></svg>