<svg xmlns="http://www.w3.org/2000/svg" viewBox="0 0 300 439"><path fill="#533f2c" d="M0 0h300v439H0z"/><g fill-opacity=".5"><path fill="#f7ffff" d="M210 465.6 326.8-4.3-26.6 2.6z"/><path fill="#a9b1c2" d="m294.1 465.6 25.7-492.2-346.4 163z"/><path fill="#cbdef8" d="m184.3 465.6-65.1-200.7-145.8 159.5z"/><path fill="#7e8089" d="M297.5 465.6 313 144.9-26.6 376.4z"/><path fill="#e6ecf5" d="M203.2 42 4.2-26.6-26.5 289z"/><path fill="#9d9275" d="M141.5 110.6 24.9 143.2l-48 161.2z"/><path d="M47.2 225.5 4.2 325l111.6-20.6z"/><path fill="#00020f" d="m95.2 244.4-91 66.8 96.1-5.1z"/><path fill="#a8aaae" d="m.9 465.6-27.5-137.2 235-24z"/><path fill="#6a6a6f" d="m79.7 376.4 207.5 85.8 32.6-118.4z"/><path fill="#7d7a80" d="m302.7 124.3-175-113.2 175-37.7z"/><path fill="#7f7a7a" d="M326.7 66 198-12.9 326.7-11z"/><path fill="#d4d9e7" d="m2.6-18 114.9 5-10.3 252.1z"/><path fill="#c5c7cf" d="M-26.6 74.6 139.8.9l41.1 226.3z"/><path fill="#111214" d="m237.5 441.6-37.7 24-29.2-73.8z"/><path fill="#3e3e42" d="M249.5 465.6h-48l-68.6-85.8z"/><path fill="#907643" d="m81.5 217-1.8-77.2-37.7-5.2z"/><path fill="#d1d7dd" d="m-11.1 237.5-15.5-180 77.2 3.4z"/><path fill="#232d47" d="m273.5 229-27.4-44.7 3.4 55z"/><path fill="#95959b" d="m313 112.3-103 235 58.4 65.1z"/><path fill="#9ca6b0" d="m-26.6 419.3 25.7-187 32.6 233.3z"/><path fill="#93959a" d="m-26.6 438.1 5.2-216 77.1 243.5z"/><path fill="#868282" d="M215.2 287.2 81.5 235.8l174.9 229.8z"/><path fill="#979699" d="m91.7 319.8 108-169.8 67 108z"/><path fill="#d2d3db" d="m270 100.3-46.2 82.3 58.3 6.9z"/><path fill="#9a9aa0" d="m227.2 35.2-5.1 152.6L156.9-7.7z"/><path fill="#0c1316" d="M23.2 217 9.4 326.6l30.9 5.1z"/><path fill="#77775b" d="M23.2 203.2.9 265l82.3-41.1z"/><path fill="#e9e6e0" d="M81.5 146.6h30.8l-29.1 97.8z"/><path fill="#aaaeaf" d="m71.2 138-39.5 68.6 32.6 29.2z"/><path fill="#9d9793" d="m217 90-108.1 20.6v42.9z"/><path fill="#cacfde" d="m196.3 90-222.9-1.7 115-114.9z"/><path fill="#9c9a9c" d="m81.5 342.1-108 17.2 233 90.7z"/><path fill="#919094" d="m88.3 359.3-114.9 84 216-5.2z"/><path fill="#464448" d="m136.3 371.3 15.5 15.4 39.4-44.6z"/><path fill="#807f83" d="m177.5 355.8 22.3-173.2 36 252.1z"/><path fill="#060e13" d="m33.4 326.7 67-73.8L6 256.4z"/><path fill="#9c9998" d="M160.3 371.3 102 297.5l13.8-168z"/><path fill="#999899" d="M230.6 443.3 169 400.4l27.4 34.3z"/><path d="m230.6 458.7-29.1-1.7-29.2-44.6z"/><path fill="#b0aca3" d="m59.2 103.7 41.1 58.4-126.9-79z"/><path fill="#d4d9db" d="M-26.6 191.2 49 122.6l-75.5-10.3z"/><path fill="#997a3d" d="M81.5 160.3 11 153.5l44.6-18.9z"/><path fill="#fafeff" d="m91.7 93.5 13.8 34.3-43-24z"/><path fill="#89888e" d="M283.8-4.3 326.7 169l-51.5 152.6z"/><path fill="#8c8b90" d="m283.8 42 37.7 147.5-46.3 132z"/><path fill="#4c535b" d="m28.3 325-54.9 39.4L49 337z"/><path fill="#1c1d21" d="m28.3 325-12-6.9 18.9 29.2z"/><path fill="#906e28" d="m19.7 162 13.7 25.8-10.2 36z"/><path fill="#bec3c3" d="M64.3 167.2 30 153.5l3.4 68.6z"/><path fill="#393334" d="m81.5 38.6 12 8.6-13.8-1.8z"/><path fill="#b9bbc2" d="m108.9 72.9 17.1 24-37.7 51.4z"/><path fill="#bbbbc1" d="m193 90-72.1 96 24 116.7z"/><path fill="#949496" d="m206.6 78 13.8 223-58.3-15.5z"/><path fill="#755513" d="m86.6 251.2-13.7-44.6-1.7 37.8z"/><path fill="#b9baba" d="m107.2 246-25.7 5.2 6.8-54.9z"/><path fill="#3b4360" d="M244.4 263.2 234 273.5l44.6-3.4z"/><path fill="#bac2d4" d="m258 271.8 19 22.3-51.5-12z"/><path fill="#b1afb6" d="m16.3 355.8 145.8-48-80.6 3.4z"/><path fill="#a0a0a1" d="m86.6 397 85.7-49.7-10.2-39.5z"/></g></svg>