<svg xmlns="http://www.w3.org/2000/svg" viewBox="0 0 299 451"><path fill="#30374b" d="M0 0h299v451H0z"/><g fill-opacity=".5"><path fill="#e1f4ff" d="M-27.3 120.7 326.8-25.5 200 478.3z"/><path fill="#99a8b7" d="M-27.3 4.4 326.8-7.9l-252 486.2z"/><path fill="#9ba4ab" d="M-27.3 425.5 291.6-27.3l31.7 458z"/><path fill="#575c5d" d="M182.3 478.3 203.5 1l95.1 428z"/><path fill="#f0f7f9" d="m296.8-27.3 30 398.1-75.8-206z"/><path fill="#7a8899" d="m156-27.3 170.8 338.2-165.6-38.7z"/><path fill="#646861" d="m-27.3 268.7 89.8 209.6 1.8-505.6z"/><path fill="#6f777a" d="m2.6 478.3 82.8-220.2L1 41.4z"/><path d="m90.7 272.2-40.5-24.7 96.9-5.3z"/><path fill="#c2d9ff" d="M156 111.9 48.3 245.8l109.3-7z"/><path fill="#c2d7f7" d="m69.6 416.6-1.8-146.2 139.2-1.7z"/><path fill="#656869" d="m184.1 478.3-211.4-38.8 287.2-75.7z"/><path fill="#5e666d" d="m247.5 8-5.3 109.2-137.4-70.5z"/><path fill="#5c6972" d="m247.5 8-45.8 65L87.2 41.4z"/><path d="m175.3 235.2 31.7 26.4-38.8 3.5z"/><path fill="#fcffff" d="m156 282.8-14.2-33.5 12.4-44z"/><path fill="#17274b" d="m133 177 14.1 84.6-22.9 3.5z"/><path fill="#00021c" d="m48.4 270.4 98.7-8.8-47.6-15.8z"/><path fill="#9bb5e1" d="m74.9 237-7-195.6 91.5 31.7z"/><path fill="#6c7377" d="M69.6 252.8 16.7-27.3l-44 496.8z"/><path fill="#4c4840" d="m323.3 462.5-192-14.1 176-109.4z"/><path fill="#747d8a" d="M319.8 258-2.6 478.4l177.9-47.6z"/><path fill="#4a4d4e" d="M57.3 184.1 59-27.3-18.5-22z"/><path fill="#70797f" d="m71.3 293.3-98.6 37L30.8 23.8z"/><path fill="#4e6591" d="m141.8 244-1.7-135.7-19.4 70.5z"/><path fill="#9ba3a4" d="m222.9 256.3-5.3-202.6L319.8 304z"/><path fill="#565d66" d="m131.2 321.5-158.5 67 68.7-54.7z"/><path fill="#595d5e" d="M64.3 312.7v165.6L-27.3 436z"/><path fill="#a9c0e5" d="m159.4 238.7 35.3-100.4-1.8 105.7z"/><path fill="#73859f" d="m159.4 238.7 8.8-104 23 105.8z"/><path fill="#cad1d9" d="M326.8 200 270.4-27.3l-17.6 246.6z"/><path fill="#dce3e8" d="m314.5 219.3 12.3-230.8-56.4 172.7z"/><path fill="#b9cde8" d="m194.7 369 5.3-40.4-141 15.8z"/><path fill="#798ca8" d="m173.5 406 1.8-84.5L55.5 444.8z"/><path fill="#ebfbff" d="M131.2 238.7 62.5 244l54.7-54.6z"/><path fill="#00000f" d="m69.6 247.5-1.8 10.6 28.2 1.8z"/><path fill="#727f8b" d="M157.7 348v-79.3L310.9 244z"/><path fill="#5b646c" d="m244 388.5-47.6 72.2 1.8-244.9z"/><path fill="#abb2b6" d="M244-4.4v169.1L326.8-2.6z"/><path fill="#b4bcc3" d="M277.5-27.3 251 133l75.8-95z"/><path fill="#8597a7" d="m64.3 13.2 93.4 28.2-1.8-68.7z"/><path fill="#7a8996" d="M66 16.7 226.5 1 66-27.3z"/><path fill="#4c4f5e" d="m66 71.3 38.8-5.2 42.3 21.1z"/><path fill="#c3d5ea" d="M69.6 64.3 87.2 52l47.6 26.4z"/><path fill="#1b253c" d="m96 413.1 33.5-21.1 30 1.7z"/><path fill="#8c9fb7" d="m104.8 362-28.2 45.8 135.7-31.7z"/><path fill="#d4e8fd" d="m145.3 189.4 17.7 77.5-24.7 45.8z"/><path d="m191.1 261.6 1.8-19.4-24.7 7z"/><path fill="#aec5de" d="m177 265.1 19.4 47.6-24.6 8.8z"/><path fill="#6b7173" d="m279.2 339.1-47.5-186.7-5.3 213.2z"/><path fill="#a7bfe6" d="m193 85.4 1.7 81-26.5-79.2z"/><path fill="#7485a0" d="m194.7 22-14.1 153.3-24.7-91.6z"/><path fill="#665844" d="M201.7 478.3 6.2 473l153.2-61.6z"/><path fill="#6b7787" d="m187.6 478.3-26.4-125 47.6 47.5z"/><path fill="#40598a" d="m131.2 97.8-1.7 37 15.8-37z"/><path fill="#99b9eb" d="m150.6 89 10.6 52.8-17.6-26.4z"/><path fill="#d0e0f5" d="M159.4 326.8 136.5 362l-68.7-12.3z"/><path fill="#74818d" d="m163 406-8.8-28.1 17.6-30z"/></g></svg>