<svg xmlns="http://www.w3.org/2000/svg" viewBox="0 0 300 413"><path fill="#40414f" d="M0 0h300v413H0z"/><g fill-opacity=".5"><path fill="#feffff" d="m-7.3-12.1 58.1 340.4L317-23.4z"/><path fill="#cfd3d3" d="m12.1 229.9 267.8 79 4.8-154.8z"/><path fill="#fff" d="M44.4 288 39.5 12 117 160.5z"/><path fill="#383940" d="m112.1 204 3.2-122.5 184 156.5z"/><path d="m73.4 271.8 251.7 124.3-271 42z"/><path fill="#110f0d" d="m60.5 318.6 264.6 21L68.6 438z"/><path fill="#f7ffff" d="M197.6 262.2 155.6 96l-4.8 143.6z"/><path fill="#fff" d="m92.8 28.2 17.7 250-69.4-53.1zm201.6 171L238 130l-13 67.7z"/><path fill="#fff" d="m292.8 181.5-27.4-22.6-25.8 45.2z"/><path fill="#161920" d="M39.5 88 38 236.2-.8 96z"/><path fill="#595c64" d="M38 89.5 46 317-25 86.3z"/><path fill="#3c3b3a" d="m168.6 110.5 3.2 109.7 90.4-159.7z"/><path fill="#58534b" d="M173.4 113.7 209 223.4l50-153.2z"/><path fill="#0e0c11" d="M157.3 191.2 325 257.3l-9.7-51.6z"/><path fill="#7d8c9d" d="m138 279.9 187 45.2v-95.2z"/><path fill="#747b87" d="M284.7 63.7 12.1.8l313-12.9z"/><path fill="#b5c1ca" d="M267 100.8-25 88 21.8 7.3z"/><path fill="#333948" d="m107.3 217 43.5-142-3.2 166.2z"/><path fill="#6e6e75" d="M107.3 242.8V86.3l82.3 237.2z"/><path fill="#e0edfa" d="M233.1 229.9 215.4 283l-66.2-77.4z"/><path fill="#94a2b3" d="m254 202.5-16 90.3-42-22.6z"/><path fill="#040502" d="m25 297.7-50 101.6L52.4 438z"/><path fill="#98a6bc" d="M91.2 223.4 33 246l16.1 132.3z"/><path fill="#fff" d="m38 99.2 69.3 16.1-37.1 158.2z"/><path fill="#fff" d="m39.5 108.9 75.8 40.3L42.8 217z"/><path fill="#31323c" d="m79.9 333.1-16.2-56.4 129-13z"/><path fill="#8ba3c2" d="m42.8 320.2 25.8-21 24.2 11.4z"/><path fill="#2e2306" d="M241.2 159 288 46l35.5 116z"/><path fill="#a9a9a7" d="m249.3 128.3-8.1-56.5-17.8 108z"/><path fill="#181718" d="M215.4 284.7 325 352.5 279.9 438z"/><path fill="#121110" d="m54 317 266.2 103.3L71.8 438z"/><path fill="#1f0300" d="m71.8 231.5 21 8 1.6-12.8z"/><path fill="#fff" d="m65.3 275 3.3-43.5 32.2 40.3z"/><path fill="#83878a" d="m-25 67 79 38.7 93.6-13z"/><path fill="#c8cfd7" d="m-25 70.2 95.2-35.5 122.6 54.8z"/><path fill="#fff4d9" d="m281.5 144.4-6.4 19.3v-41.9z"/><path fill="#524b49" d="m275 159-33.8-9.8 3.2-88.7z"/><path fill="#fff" d="m288 165.4-51.7-4.9 8.1 45.2z"/><path fill="#676350" d="M325 144.4 281.6 183l8 24.2z"/><path fill="#3e312e" d="m246 228.3-32.2-64.6-40.4 45.2z"/><path fill="#33332f" d="M236.3 152.5 230 104h-59.7z"/><path fill="#93999f" d="M220.2 81.5 325.1-25v46.8z"/><path fill="#7f838c" d="M228.3 86.3 325 10.5 262-25z"/><path fill="#030000" d="m325 54-37 108.1-6.5-85.5z"/><path fill="#4d4637" d="m246 94.4 33.9 40.3 8-79z"/><path fill="#fff" d="m168.6 176.7-3.2-58.1-11.3 51.6z"/><path fill="#5f616b" d="m165.4 189.6 11.3-82.3 29 69.4z"/><path fill="#34353e" d="M141.2 247.6 67 296l132.2 87.2z"/><path fill="#3d414c" d="m104 105.7 45.2-11.3 3.3 117.7z"/><path fill="#5a606e" d="m107.3 117 37-30.7-16 146.8z"/><path fill="#eaeff4" d="m215.4 217-67.8 1.6 1.6 22.6z"/><path fill="#baada3" d="m183.1 257.3-64.5 1.6-13-38.7z"/><path fill="#7a808a" d="m231.5 292.8 90.3-67.7-6.4 116.1z"/><path fill="#717985" d="m234.7 278.3 51.7-37.1 11.3 90.3z"/><path fill="#010000" d="m118.6 271.8-50 6.5 45.1 6.4z"/><path fill="#5e5859" d="m154 255.7-12.8-29L89.5 317z"/><path fill="#c5cedc" d="m186.3 275-6.4 34-4.9-30.7z"/><path fill="#2a2a2c" d="m262.2 415.4 62.9-50-154.9-54.8z"/></g></svg>