<svg xmlns="http://www.w3.org/2000/svg" viewBox="0 0 298 455"><path fill="#384862" d="M0 0h298v455H0z"/><g fill-opacity=".5"><path fill="#fffdee" d="M326.1 54.2 178.6 482.5-27.5 18.7z"/><path fill="#d0cbc8" d="m292.4 180.4-3.6 302.1-231-431.8z"/><path fill="#c2bebe" d="m9.8 176.8 81.7 305.7 177.8-165.2z"/><path fill="#cdd3db" d="M80.9 98.6 82.6 383l170.7-273.7z"/><path fill="#867e7a" d="m-27.5 8 339.4 138.6-28.4-174.1z"/><path fill="#797a81" d="M-27.5 41.8 311.9 111 280-27.5z"/><path fill="#5b4f4a" d="m79 105.8 2 355.4L-27.5 65z"/><path d="m-2.7 118.2-24.8 300.4 65.7-81.8z"/><path fill="#888381" d="m224.8 354.6 10.7 128-263-51.6z"/><path fill="#78777a" d="M224.8 372.4 216 482.5-27.5 447z"/><path fill="#5f5345" d="m326.1-27.5-83.5 184.8 55.1 268.4z"/><path fill="#d2d6dc" d="m239 56-76.4 51.5L244.4 383z"/><path fill="#00000b" d="m189.3 264 7.1 26.6 16-17.8z"/><path fill="#a9b0b3" d="m130.6 153.7-23 304 103-277.3z"/><path fill="#e5eff9" d="m184 297.7-94.2 16 113.7 42.7z"/><path fill="#f7fdff" d="m125.3 297.7-32 56.9 17.8-149.3z"/><path fill="#737174" d="m27.5 322.6 58.7-343-92.4-7.1z"/><path fill="#949ca9" d="m89.8 253.3 42.6-280.8-67.5 64z"/><path fill="#1b1d22" d="M159 36.4 180.5 72 145 93.3z"/><path fill="#787c82" d="M-27.5-24 303 40 97 57.8z"/><path fill="#190300" d="m66.7 340.4-71.1-62.2-23.1 119z"/><path fill="#000200" d="m22.2 294.2-16-113.8-30.2 224z"/><path d="m-25.8 121.7 39.1 3.6-5.3 87z"/><path fill="#0a110b" d="m-27.5 132.4 40.8-7.1-1.7 69.3z"/><path fill="#99999f" d="m200 36.4 80-23-21.4 314.5z"/><path fill="#696664" d="M255 57.8 319 40l-48 218.6z"/><path fill="#4a3f31" d="m242.6 468.3 83.5-8.9-108.4-71z"/><path fill="#7c7c81" d="m212.4 386.6 37.3 96-277.2-71.1z"/><path fill="#251602" d="M294.2 194.6V-18.7l32 117.3z"/><path fill="#8f8d8f" d="M292.4 191 210.6 41.9 288.8 63z"/><path fill="#fff" d="m118.2 262.2 5.3-97.8-21.3 35.6z"/><path fill="#b0b7c5" d="m100.4 171.5 74.7-78.2L61.3 50.7z"/><path fill="#8f9097" d="M6.2 210.6 79.1 296l21.3-101.3z"/><path fill="#625e5d" d="M2.7 98.6 72 237.3l8.9-122.7z"/><path fill="#81858a" d="m134.2 232 8.9 65.7-30.2 64z"/><path fill="#c2d2dd" d="M157.3 155.5 143 285.3l33.7-30.3z"/><path fill="#e7edf4" d="m223 278.2-3.5-156.5-30.2 122.7z"/><path fill="#b0b5b7" d="m160.8 304.8-44.4-138.6 117.3 55z"/><path fill="#271a05" d="m292.4 248 33.7 99.5-32 113.7z"/><path fill="#777067" d="m265.7 304.8 28.5 69.3-14.3 72.9z"/><path fill="#8b8e95" d="m18.7 461.2 64-74.6-110.2 58.6z"/><path fill="#71747b" d="m64.9 479 37.3-113.8-113.8 83.6z"/><path fill="#716c6e" d="M22.2 345.7 49 262.2l-28.5-41z"/><path fill="#585158" d="m68.4 338.6 9-65.8-57 33.8z"/><path fill="#000003" d="m267.5 182.2 1.8 49.7 7-24.8z"/><path fill="#a2aab2" d="m233.7 150.2 32 120.8 1.8-74.6z"/><path fill="#382419" d="M72 377.7 45.3 406l-72.8-8.9z"/><path fill="#5e5a5f" d="m95 390.1-42.6-35.5-71 35.5z"/><path fill="#8a93a1" d="m189.3 280 8.9 90.6 49.7 62.2z"/><path fill="#abb5c2" d="m240.8 335-158.2 1.8 112 46.2z"/><path fill="#938d84" d="m123.5 258.6 30.2-87-28.4-1.9z"/><path fill="#c9d8e2" d="m137.7 235.5 23.1 5.3 1.8-69.3z"/><path fill="#fff" d="m214.2 276.4 10.6 35.5-12.4 26.7z"/><path fill="#b0bbc3" d="m224.8 306.6 49.8 99.5-65.8-58.6z"/><path fill="#8e8b89" d="m269.3 326.1 23-69.3-17.7-74.6z"/><path fill="#929191" d="m280 301.3-28.5 103-7.1-204.3z"/><path fill="#99a0ad" d="m114.6 422.1 14.3-32-80 1.8z"/><path fill="#4e434a" d="m18.7 347.5 48-5.4-49.8 71.1z"/><path fill="#acb4be" d="m105.8 256.8 1.7 81.8-32 37.3z"/><path fill="#bbc0c9" d="m107.5 237.3-12.4 135-14.2-64z"/></g></svg>