<svg xmlns="http://www.w3.org/2000/svg" viewBox="0 0 299 436"><path fill="#262934" d="M0 0h299v436H0z"/><g fill-opacity=".5"><path fill="#fff" d="M326.1-.9 186.5 462.4-26.4 4.3z"/><path fill="#c1cdde" d="m326.1 106.4-49.3 356-303.2-282.7z"/><path fill="#b7bfcd" d="m16.2 459 240.1-1.7L-6 63.9z"/><path fill="#72798a" d="m45.1 462.4 281-23.8L53.6 4.3z"/><path d="M-26.4 293.8 92.8 246l-3.4-97z"/><path fill="#d9dde7" d="M181.4 411.3 86 384.1 217.1 31.5z"/><path fill="#fbffff" d="m249.5 276.8 76.6-148.2-190.7 23.8z"/><path fill="#fff" d="m208.6 268.2 17-136.2-78.3 61.3z"/><path fill="#3a3638" d="m247.8 431.7-97-177 120.8 25.5z"/><path fill="#403f44" d="M205.2 382.4 178 304l100.5 13.6z"/><path fill="#f1ffff" d="m-21.3 229-5.1-158.3 95.4 143z"/><path fill="#dae7f9" d="m50.2 217.1-76.6 3.5 83.5-78.4z"/><path fill="#14264c" d="M104.7 50.2 62.2 232.5 53.6-26.4z"/><path fill="#6f89ad" d="M69-26.4 33.2 210.3-26.4 7.7z"/><path fill="#aabada" d="M288.7 21.3 91 115l3.4-141.4z"/><path fill="#8e9ab6" d="m276.8-12.8-39.2 194.2L41.7-14.5z"/><path fill="#a7b2be" d="M38.3 271.6 258 210.3 118.4 367z"/><path fill="#f6f9ff" d="m130.3 287 46-17 17 153.2z"/><path fill="#54678a" d="m326.1 65.6-5 75L74 97.8z"/><path fill="#6f80a0" d="m326.1 24.7-15.3 98.8-238.4 23.8z"/><path fill="#feffff" d="m92.8 104.7 22.2 59.7-18.8 74.9z"/><path fill="#4e689e" d="m161 74-53 13.8L147.3 236z"/><path d="m106.4 237.6-97-15.3-35.8 40.8z"/><path fill="#060810" d="m92.8 215.4-97 17L74 259.8z"/><path fill="#8b99a9" d="m256.3 258 69.8-195.8-28.9 400.2z"/><path fill="#787c8a" d="m189.9 426.6 136.2-131.1-46 166.9z"/><path fill="#332f32" d="M21.3 462.4 120 317.6l-97 83.5z"/><path fill="#abafb6" d="M45.1 404.5 123.5 304l-17-97z"/><path fill="#5a739d" d="m121.8 270 61.3 3.4-76.7-138z"/><path fill="#8297b8" d="m108.1 200.1 80.1 73.3L106.4 115z"/><path fill="#c2cdd5" d="m21.3 24.7 42.6 71.5-90.3-13.6z"/><path fill="#3b537f" d="m40 99.6 8.5 46-74.9-34z"/><path fill="#fff" d="M154.1 140.5V236l61.3-100.5z"/><path fill="#fff" d="m162.6 142.2 58 88.6 5-97.1z"/><path fill="#989aa6" d="m91.1 362 180.5 47.6-255.4 52.8z"/><path fill="#5a5e63" d="m4.3 280.2 29 182.2-59.7-75z"/><path fill="#bac2d0" d="M167.8-26.4 123.5 86l129.4-8.5z"/><path fill="#aeb5c5" d="m109.9 46.8 114 27.3 20.5-100.5z"/><path fill="#f0f0f7" d="M297.2 225.7 244.4 84.3l-1.7 132.8z"/><path fill="#384562" d="M58.8 4.3-2.6 2.6l92 80z"/><path fill="#747f97" d="M101.3 41.7-26.4-26.4h143z"/><path fill="#506595" d="m218.9 108.1 17 97.1L251.2 52z"/><path fill="#8a96aa" d="m232.5 135.4-68.1 1.7-5.2-59.6z"/><path fill="#fff" d="m57 161-3.3 56-17-69.8z"/><path fill="#ecf7ff" d="m26.4 155.8-52.8 129.5v-155z"/><path fill="#555458" d="m203.5 329.6 86.9-63H184.8z"/><path fill="#8095be" d="M232.5 159.2 246 236l-22 10z"/><path fill="#dad9e1" d="m225.7 387.5-18.8 27.2-56.2-35.8z"/><path fill="#9fa5b7" d="m207 423.2-56.3-13.6 83.5-18.7z"/><path fill="#343d4e" d="M57 249.5 91.2 144 60.5 24.7z"/><path fill="#40495e" d="M57 237.6 94.6 115 57.1 28z"/><path fill="#657489" d="m261.4-26.4 64.7 30.7-22 211.1z"/><path fill="#808a9f" d="M239.3 7.7 326-24.7l-71.5 165.2z"/><path fill="#51678d" d="M26.4 229v-74.9L40 201.8z"/><path fill="#f7fbff" d="M-2.6 227.4-26.4 217l61.3-3.4z"/><path fill="#54535c" d="m101.3 350-54.5 20.4 85.2-68.1z"/><path fill="#8b8e9c" d="m70.7 390.9 97 39.1-20.4-78.3z"/><path d="m19.6 435.1 42.6-42.5L40 431.7z"/><path fill="#686b78" d="M26.4 462.4 6 397.7l20.4 13.6z"/></g></svg>