<svg xmlns="http://www.w3.org/2000/svg" viewBox="0 0 300 430"><path fill="#42342b" d="M0 0h300v430H0z"/><g fill-opacity=".5"><path fill="#fff" d="M-26-26 326.7 7.6 46.2 456z"/><path fill="#ccd4d7" d="M-26 7.6 326.7-26l-35.3 482z"/><path fill="#95a2ac" d="m17.6 19.3 309.1 404.8L-26 451z"/><path fill="#4c535a" d="m59.6 269.6 267.1 132.7L-26 415.7z"/><path fill="#110900" d="M293.1 249.4 221 91.5l3.3 152.9z"/><path fill="#bcb7a6" d="M326.7 98.3 269.6-16l-13.4 327.6z"/><path fill="#3a2b19" d="m101.6 229.3 72.2-94 10.1 97.3z"/><path fill="#d5d6d5" d="M2.5-26-9.2 351.9 229.3 41.2z"/><path fill="#dddfdf" d="M178.9 331.7 326.7 278 189 215.8z"/><path fill="#94b2cf" d="m39.5 456 92.4-102.4 124.3 94z"/><path fill="#5c5f63" d="m-17.6 365.3 344.3 68.9-5-136z"/><path fill="#282634" d="m61.3 345.2 116-102.5L36 311.6z"/><path fill="#f1f4de" d="m101.6 309.9 53.8 3.4L98.3 288z"/><path fill="#0f0000" d="m269.6 331.7-42-18.4 92.4-3.4z"/><path fill="#a2b3c7" d="m222.6 351.9-122.7 6.7 134.4 28.6z"/><path fill="#00000d" d="m115 247.8 43.7 45.3 27-3.4z"/><path fill="#89857d" d="m110 244.4 119.3 110.9-85.7-37z"/><path fill="#000007" d="m89.9 217.5 100.7 1.7-55.4 15.1z"/><path fill="#e6eaec" d="m51.2 229.3 99.1 3.3L-26 281.3z"/><path fill="#67593d" d="m268 101.6-45.4 74v-79z"/><path fill="#b6b19b" d="m326.7 126.8-94 21.9-16.9-35.3z"/><path fill="#050800" d="m222.6 150.3 42-5-42 107.5z"/><path fill="#d8dad9" d="m173.8 237.7 47-52-8.3 152.8z"/><path fill="#767264" d="m-11 100 35.4-1.7-10.1 134.3z"/><path fill="#d1cfca" d="M165.4 199 54.6.8 56.3 236z"/><path fill="#28120d" d="m-9.2 229.3 60.4 13.4-50.4 3.4z"/><path fill="#938a72" d="m36.1 150.3-3.3 58.8L64.7 263z"/><path fill="#f1feff" d="m89.9 288 5-45.3 28.6 26.9z"/><path fill="#79858f" d="M46.2 291.4 69.7 241l35.3 52.1z"/><path fill="#bdc1aa" d="m273 207.4-65.6 5 69 15.2z"/><path fill="#523d2e" d="m326.7 246-107.5 1.8 65.5-48.8z"/><path fill="#a1b5cf" d="m106.7 419 161.2 37v-43.6z"/><path fill="#627280" d="m66.3 360.3 198.3 13.4-278.9 70.6z"/><path fill="#a1c5ee" d="m326.7 404-75.6-42h75.6z"/><path fill="#33373d" d="m326.7 402.3-129.3 10 42-48.6z"/><path fill="#3d4049" d="M49.6 321.7 4.2 281.3-26 303.2z"/><path fill="#ece0da" d="M56.3 348.5 39.5 320 26 341.8z"/><path fill="#fff" d="m16 199 8.4-65.5 15 110.9z"/><path fill="#958f79" d="m54.6 158.7-25.2-42 5 121z"/><path fill="#060008" d="m41.2 299.8 23.5-10 1.6 48.7z"/><path fill="#9b9c92" d="m63 338.5 72.2 1.6-8.4-38.6z"/><path fill="#b4b3b6" d="M182.2 170.5 316.6-26 110 42.8z"/><path fill="#b5b5b7" d="m153.7 108.3 173-35.2-178-99.1z"/><path fill="#b0aead" d="m316.6 237.7-15.1 68.8-119.3 8.4z"/><path fill="#a9a7a6" d="m281.3 246 43.7 59-115.9 8.4z"/><path fill="#3a2912" d="M138.6 333.4 78 353.6l124.3-1.7z"/><path fill="#715c40" d="M136.9 346.9v-35.3l58.8 33.6z"/><path fill="#8a7f6c" d="m187.3 142-68.9 13.4 23.5 67.2z"/><path fill="#9e9283" d="m178.9 195.7-62.2-6.7 10.1 31.9z"/><path fill="#232730" d="m84.8 229.3 11.8-13.5 48.7 15.2z"/><path fill="#d9dcdf" d="m66.3 136.9-33.5 136 60.4-43.6z"/><path fill="#848670" d="m303.2 232.6-15.1-94-25.2 90.7z"/><path fill="#c9c5b6" d="m326.7 209.1-45.4-84L315-19.3z"/><path fill="#d7e1ee" d="M152 .8-26-2.5l37 50.4z"/><path fill="#c0c4cc" d="m185.6-26-62.1 151L-26 63z"/><path fill="#321000" d="m26 362-45.3 63.8 5-65.5z"/><path fill="#5f5552" d="m31 304.9-8.3 57L-6 340.2z"/><path fill="#101207" d="m264.6 214.2-42-16.8 33.6-60.5z"/><path fill="#14160f" d="m226 152 3.3 57.1 33.6-8.4z"/></g></svg>