<svg xmlns="http://www.w3.org/2000/svg" viewBox="0 0 300 199"><path fill="#463d32" d="M0 0h300v199H0z"/><g fill-opacity=".5"><path fill="#e5ecf6" d="M216.2 217.4 318.2-10-18.2 3z"/><path fill="#939395" d="m299.4 217.4 4.7-235.6L-18.2 89.6z"/><path fill="#fff" d="m66.2-13.5 34 158.2 41-162.9z"/><path fill="#fff" d="m88.5-18.2-7 134.8 42.1-22.3z"/><path fill="#8b909d" d="m29.9-18.2 82 235.6-98.4-46.9z"/><path fill="#66666b" d="m70.9 27.5 32.8 185.2L-18.2-13.5z"/><path fill="#3e3634" d="m174 209.2 20-88-112.6-18.7z"/><path fill="#58483b" d="m192.8 217.4-3.5-106.7-42.2 47z"/><path fill="#e0e7eb" d="m204.5 165.8-45.7-184L208 7.6z"/><path fill="#49474a" d="m137.7 119-22.3-86.8 73.9 10.6z"/><path fill="#666258" d="m225.6 205.7 31.6-223.9 61 8.2z"/><path fill="#747471" d="M290 217.4 244.3-18.2l73.9 61z"/><path fill="#d3dde4" d="M26.4 19.3 167 18.2 28.7-18.2z"/><path fill="#b0b3b4" d="m198.6-18.2 52.8 52.8-187.5-2.4z"/><path fill="#47453c" d="M17 141.2 28.7-18.2l-46.9 36.4z"/><path fill="#9a9da2" d="m12.3 190.4 15.2-171 21.1 76.1z"/><path fill="#a0896f" d="m170.5 147 103.1 70.4L163.5 201z"/><path fill="#86776a" d="m228 130.7 58.5 27-96 59.7z"/><path fill="#372d22" d="m54.5 217.4 16.4-54-57.4-55z"/><path fill="#909fb4" d="M81.4 182.2 93.2 160l-48-34z"/><path fill="#353028" d="M158.8 42.8 154 99h22.3z"/><path fill="#acb5c1" d="M138.9 97.9 161 127l31.7-23.4z"/><path fill="#fff" d="m70.9 104.9 45.7-4.7 3.5-91.4z"/><path fill="#fff" d="m82.6 78 39.9 32.7-24.6-83.2zm123.1 28-16.4-18.7 16.4-52.7z"/><path fill="#bcbfc3" d="m220.9 127.1 28.1 4.7-30.4-98.4z"/><path fill="#1c1618" d="m202.1 110.7-59.7 98.5-31.7-24.6z"/><path fill="#090000" d="m153 188-17.6 17.7-47-35.2z"/><path fill="#e2e3e5" d="m24 175.2 2.4-46.9-14.1 41z"/><path fill="#534a41" d="m22.9 201 3.5-56.3 70.3-21z"/><path fill="#67676e" d="m87.3 27.5-51.6-8.2L37 143.6z"/><path fill="#807e82" d="m83.8 49.8-44.5-20 15.2 140.7z"/><path fill="#9a9a9d" d="M104.9 137.7 42.8 97.9l78.5 5.8z"/><path fill="#76726d" d="m123.6 131.8-83.2-14 73.9-11.7z"/><path fill="#fff" d="m211.5 135.4-16.4 1.1 1.2 35.2z"/><path fill="#b0aeb6" d="m212.7 126-18.8 55 21.1-29.2z"/><path fill="#82848d" d="m151.8 181 12.8-26.9-31.6-16.4z"/><path fill="#303947" d="M155.3 161.1 75.6 126l30.5 44.5z"/><path fill="#63748e" d="m217.4 106-49.2-2.3 50.4 37.5z"/><path fill="#bbbfc3" d="m176.4 21.7 1.1 73.8 25.8 17.6z"/><path fill="#54514b" d="m-18.2 46.3 45.7-64.5L24 146z"/><path fill="#3c372f" d="m-18.2 44 29.3-62.2-1.1 170z"/><path fill="#464c54" d="m220.9 75.6-10.5-31.7 2.3 66.8z"/><path fill="#969085" d="m228 70.9 30.4-36.3-14 136z"/><path fill="#ebe9e7" d="m35.7 33.4-8.2 28.1V18.2z"/><path fill="#767578" d="M83.8 14.6 45 110.7 30 20.5z"/><path fill="#b4b7b7" d="M28.7 17 228 46.3 255-17z"/><path d="m95.5 136.5-34 2.4 4.7 8.2z"/><path fill="#a0aec3" d="m53.3 143.6 35.2 9.3-10.6 10.6z"/><path fill="#edf0f5" d="M27.5 109.6V58l8.2 22.3z"/><path fill="#656159" d="m7.6 60.4 20 11.7L24-8.8z"/><path fill="#6e6f77" d="m124.8 123.6-4.7-98.4h41z"/><path d="M28.7 192.8 59.2 181 31 217.4z"/><path fill="#584f47" d="m15.8 201 58.6-45.7-75 28.1z"/><path fill="#b6abb0" d="M52.1 217.4h42.2l-22.2-37.5z"/><path fill="#4d4134" d="M33.4 137.7 62.7 208l2.3-42.2z"/><path fill="#cfd6dd" d="m184.6-18.2-202.8 3.6L123.6 31z"/><path fill="#d3d8dc" d="m130.7-18.2-148.9 3.6 109 30.4z"/></g></svg>