<svg xmlns="http://www.w3.org/2000/svg" viewBox="0 0 300 209"><path fill="#674d3f" d="M0 0h300v209H0z"/><g fill-opacity=".5"><path fill="#f5ffff" d="M318.2-18.2 293.6 228-18.2 7.6z"/><path fill="#c2d0d7" d="M318.2 14.6-18.2-18.2 5.3 228z"/><path fill="#251809" d="m210.4 119-103.2-3.6 102-92.5z"/><path fill="#b9bab6" d="M229.1 101.4H-8.8V-18.2z"/><path fill="#fff" d="m210.4 171.7 3.5 56.2 104.3-23.4z"/><path fill="#dae4f4" d="M210.4 171.7v53.9L317 195z"/><path fill="#bcc7d8" d="M47.5 209.2h66.8L48.6-18.2z"/><path fill="#5b606e" d="m86.1 225.6 70.3-8.2-68-177z"/><path fill="#e6effe" d="m259.6 217.4 58.6-41-57.5-194.6z"/><path fill="#c4c5cd" d="m252.5 138.9 49.3 49.2-5.9-206.3z"/><path fill="#2e364a" d="M279.5 168.2 85 227.9l85.5-94.9z"/><path fill="#ded0c2" d="m100.2 161.1-58.6-44.5 171.1 4.7z"/><path fill="#9e6630" d="m157.6 158.8-78.5-23.4h138.3z"/><path d="m183.4 95.5-71.5 20 103.1 2.3z"/><path fill="#706452" d="M204.5 32.2h-75l72.6 76.2z"/><path fill="#d2d6e1" d="m245.5 119-34 109-1.1-115z"/><path fill="#bbbbc3" d="m243.2 134.2-31.7 93.7-1.1-201.5z"/><path fill="#cad2dc" d="m21.7 47.5-39.9 138.2L19.3 228z"/><path fill="#64696e" d="m33.4 59.2-3.5 102L65 192.7z"/><path fill="#f8f9f4" d="m95.5-12.3 65.6-5.9-45.7 114.9z"/><path fill="#61676d" d="M45.1 7.6 20.5-12.3 37 86.1z"/><path fill="#140100" d="m158.8 117.8-58.6-22.3-9.4 20z"/><path fill="#f8eedb" d="m134.2 101.4-25.8 1.1 45.7-32.8z"/><path fill="#23191e" d="m260.7 148.2-28-1.1 15.2 43.3z"/><path fill="#ebf3f8" d="m257.2 141.2 20 20-9.4 62z"/><path fill="#635843" d="M90.8 99 92 33.4l18.7-1.2z"/><path fill="#7d786d" d="m95.5 41.6 35.2-11.7 35.1 12.9z"/><path fill="#141f35" d="M208 228v-70.4l-96 35.2z"/><path fill="#232737" d="m211.5 228-41-78.6-50.4 30.5z"/><path fill="#ced8dd" d="M28.7 213.9 86.1 174l-4.7 42.2z"/><path fill="#67718d" d="m136.5 162.3-52.7-17.6 4.7 83.2z"/><path fill="#e0f0ff" d="m82.6 117.8 23.5 18.7 68-16.4z"/><path fill="#946944" d="m102.5 145.9 104.3 11.7-5.8-27z"/><path fill="#ced4db" d="M298.2-18.2 45.2.6 295.8 51z"/><path fill="#525357" d="m33.4 153 1.2 32.7L88.5 167z"/><path fill="#b6b6b8" d="M.6 135.4 80.3 79l16.4 75z"/><path fill="#070d1b" d="m238.5 89.6 4.7 23.5-7 10.5z"/><path fill="#c2cbd3" d="m222 65 71.6-9.3-62.2 52.7z"/><path fill="#4e463e" d="m188 32.2-19.8 1.2 9.3 62.1z"/><path fill="#938b74" d="M210.4 54.5 196.3 99l-17.6-56.2z"/><path fill="#1c1e26" d="m258.4 155.3 1.2 25.8-24.6-1.2z"/><path fill="#fff" d="m237.3 228 32.8-27-24.6-16.4z"/><path fill="#00000a" d="m211.5 116.6-3.5-20-64.4 18.8z"/><path fill="#a39685" d="m208 102.5-58.6-55-14 53.9z"/><path fill="#b5bac5" d="m271.3 150.6-118.4-31.7 165.3-1.1z"/><path fill="#b7bac1" d="m242 144.7-96.1-24.6 172.3-2.3z"/><path fill="#bbc2ca" d="m-18.2-15.8 10.6 167.6L33.4.6z"/><path fill="#afb1b4" d="m-18.2 20.5 17.6 184 34-196.9z"/><path fill="#eaf2f8" d="M94.3-1.8 151.8 30l-63.3 1z"/><path fill="#dde2e6" d="m103.7-18.2 48 48-63.2 1.3z"/><path fill="#ebebe9" d="m160 39.3-2.4 49.2 9.4-25.8z"/><path fill="#f3ead6" d="m153 41.6-45.8 4.7-1.1 48z"/><path fill="#625d64" d="m209.2 131.8-20 7 9.4 66.9z"/><path fill="#bab9bd" d="m210.4 128.3 29.2 58.6-25.7 41z"/><path fill="#a1a5a7" d="m260.7 12.3-28 75V-18.2z"/><path fill="#b9bcbf" d="m260.7 26.4-8.2 77.3L185.7-4z"/><path fill="#c1c6c9" d="M41.6 170.5 40.4-18.2 93.2-4z"/><path fill="#bec0c5" d="M79.1 144.7 46.3-13.5l41 29.3z"/></g></svg>